<svg aria-hidden="true" style="position:absolute;width:0;height:0" xmlns="http://www.w3.org/2000/svg" overflow="hidden"><defs><symbol id="icon-antenna" viewBox="0 0 32 32"><path fill="var(--color1, #212121)" d="M30.773 22.098l-8.443-8.505.937-4.615c.242.094.499.144.758.146h.006a2.159 2.159 0 10-2.008-1.435l-4.96.605L8.972.161a.534.534 0 00-.377-.16.532.532 0 00-.373.155L6.709 1.66a.534.534 0 000 .754l.814.826a14.943 14.943 0 002.519 17.663.513.513 0 00.146.098c-.034.18-.051.364-.052.547v6.187h-6.4a2.67 2.67 0 00-2.667 2.667v1.067c0 .295.239.533.533.533h24.533a.533.533 0 00.533-.533v-1.067a2.67 2.67 0 00-2.667-2.667h-6.4v-2.742a15.09 15.09 0 003.049.32 14.854 14.854 0 007.04-1.783l.818.823a.534.534 0 00.377.16.532.532 0 00.373-.155l1.513-1.504a.534.534 0 000-.754zM23.28 6.233a1.066 1.066 0 11.752 1.822h-.003a1.067 1.067 0 01-.747-1.823h-.002zm-1.256 3.505l-.598 2.946-1.175-1.182 1.774-1.763zm-.605-.902l-1.92 1.909-1.485-1.493 3.405-.415zM24.004 28.8a1.6 1.6 0 011.6 1.6v.533H2.137V30.4a1.6 1.6 0 011.6-1.6h20.267zm-7.467-2.133v1.067h-5.333v-1.067h5.333zM11.204 25.6v-4.053c0-1.294 1.196-2.347 2.667-2.347s2.667 1.053 2.667 2.347V25.6h-5.333zm6.4-1.696v-2.357c0-1.882-1.675-3.413-3.733-3.413a3.8 3.8 0 00-3.281 1.786A13.87 13.87 0 018.311 4.033l18.602 18.708a13.818 13.818 0 01-9.309 1.163zm11.289-.684L7.836 2.039l.755-.752 7.935 7.98c.004 0 .006.007.01.01l13.115 13.191-.757.752z"/><path fill="var(--color2, #2196f3)" d="M13.876 20.267h-.005a1.6 1.6 0 10-.004 3.2h.005a1.6 1.6 0 10.004-3.2zm.373 1.978a.534.534 0 01-.752-.756.534.534 0 01.373-.155.532.532 0 01.373.911h.005z"/></symbol><symbol id="icon-brand" viewBox="0 0 57 32"><path fill="var(--color3, #afb1b8)" d="M14.27 23.859c.13.147.199.332.196.521.007.123-.017.247-.07.361s-.132.216-.233.297c-.252.175-.565.26-.881.24h-1.549v-3.302h1.517c.299-.018.596.059.84.219.098.075.176.17.227.277s.074.224.068.341a.725.725 0 01-.176.505.839.839 0 01-.462.258.897.897 0 01.523.282zm-1.816-.499h.648a.653.653 0 00.412-.11c.049-.04.087-.09.111-.146s.034-.116.028-.176c.005-.06-.005-.12-.029-.175s-.061-.106-.108-.147a.665.665 0 00-.425-.111h-.638v.866zm1.124 1.267c.052-.041.093-.093.12-.151s.038-.121.034-.184c.004-.064-.008-.127-.035-.186s-.069-.111-.121-.153a.714.714 0 00-.44-.119h-.68v.908h.689a.732.732 0 00.435-.114zM17.371 25.278l-.844-1.291h-.317v1.291h-.726v-3.302h1.374c.346-.022.689.078.957.281.192.179.308.415.327.666s-.061.499-.224.7c-.17.178-.401.296-.655.336l.898 1.32h-.789zm-1.161-1.74h.594c.412 0 .618-.167.618-.5a.458.458 0 00-.151-.371.687.687 0 00-.467-.134h-.601l.007 1.005zM21.339 24.614h-1.446l-.255.665h-.761l1.328-3.265h.823l1.323 3.265h-.761l-.25-.665zm-.194-.5l-.529-1.394-.529 1.394h1.057zM26.305 25.278h-.721l-1.616-2.245v2.245h-.719v-3.302h.719l1.616 2.258v-2.258h.721v3.302zM30.417 24.488a1.501 1.501 0 01-.652.582 2.282 2.282 0 01-1.013.208h-1.283v-3.302h1.283c.351-.008.698.061 1.013.203.276.127.503.328.652.576a1.78 1.78 0 010 1.732zm-.824-.079c.206-.219.319-.499.319-.788s-.113-.569-.319-.788a1.326 1.326 0 00-.902-.281h-.5v2.137h.5c.329.019.654-.082.902-.281zM21.79 3.609s9.301 3.215 9.103 7.867v7.869s-9.294-3.217-9.1-7.869l-.004-7.867zM39.179 17.503a13.494 13.494 0 015.909-1.994v-2.463c-2.444.862-4.517 2.426-5.909 4.457z"/><path fill="var(--color3, #afb1b8)" d="M38.124 18.245c1.438-2.651 3.93-4.696 6.964-5.715V5.432s-13.245 4.58-12.965 11.205V27.84s.59-.205 1.519-.589c0-.358 0-.719.042-1.082.274-3.076 1.871-5.926 4.44-7.924z"/><path fill="var(--color3, #afb1b8)" d="M36.864 22.407c.07-.777.225-1.546.463-2.294-1.599 1.725-2.568 3.866-2.77 6.122-.019.213-.03.426-.035.645a40.466 40.466 0 002.548-1.229 10.624 10.624 0 01-.206-3.244zM37.391 22.447a10.17 10.17 0 00.164 2.938c3.619-1.983 7.685-5.046 7.528-8.748v-.323c-2.585.265-5.004 1.3-6.885 2.946a10.29 10.29 0 00-.807 3.188z"/></symbol><symbol id="icon-comp-second" viewBox="0 0 57 32"><path fill="var(--color3, #afb1b8)" d="M19.417 26.187c.008 0 .017.002.025.005s.015.007.02.013l.116.111a.955.955 0 01-.327.211 1.299 1.299 0 01-.464.076 1.213 1.213 0 01-.436-.071.942.942 0 01-.329-.2.878.878 0 01-.212-.308 1.02 1.02 0 01-.074-.396.91.91 0 01.305-.705 1.06 1.06 0 01.349-.201c.143-.048.296-.072.449-.071.143-.003.285.019.417.064.115.043.221.104.313.178l-.097.119a.085.085 0 01-.025.021.066.066 0 01-.039.009.086.086 0 01-.042-.013l-.052-.032-.073-.04a.818.818 0 00-.229-.071 1.11 1.11 0 00-.173-.013.952.952 0 00-.323.053.683.683 0 00-.417.387.81.81 0 00-.06.313.795.795 0 00.06.318.68.68 0 00.402.383.867.867 0 00.3.05c.059.001.119-.003.177-.01a.69.69 0 00.384-.163.09.09 0 01.055-.02zM22.776 25.629a.974.974 0 01-.078.393c-.047.114-.122.218-.219.305s-.214.155-.344.2a1.42 1.42 0 01-.884 0 1.027 1.027 0 01-.342-.201.904.904 0 01-.221-.308 1.022 1.022 0 010-.787.94.94 0 01.221-.31c.097-.084.214-.15.342-.193.284-.096.6-.096.884 0 .129.046.246.114.343.201a.914.914 0 01.298.699zm-.306 0a.84.84 0 00-.055-.316.653.653 0 00-.402-.385 1.025 1.025 0 00-.643 0 .683.683 0 00-.246.149.63.63 0 00-.157.236.927.927 0 000 .632.643.643 0 00.403.384c.207.067.435.067.643 0a.698.698 0 00.246-.148.662.662 0 00.156-.236.82.82 0 00.055-.316zM25.067 25.96l.03.071.033-.071a.68.68 0 01.038-.07l.743-1.174c.015-.02.028-.033.042-.037a.207.207 0 01.061-.006h.22v1.909h-.26v-1.404-.059a.726.726 0 010-.066l-.747 1.19c-.009.018-.025.033-.044.043s-.041.016-.064.016h-.042c-.023 0-.045-.005-.064-.016s-.034-.026-.044-.044l-.769-1.198v1.533h-.252v-1.905h.22a.207.207 0 01.061.006.087.087 0 01.041.037l.759 1.175a.418.418 0 01.038.068zM27.864 25.865v.715h-.291v-1.906h.649c.122-.002.244.012.362.042a.724.724 0 01.256.119.492.492 0 01.145.187.576.576 0 01.049.244.54.54 0 01-.211.435.752.752 0 01-.257.126 1.25 1.25 0 01-.35.044l-.352-.005zm0-.205h.352a.808.808 0 00.225-.029.52.52 0 00.163-.082.358.358 0 00.134-.286c.003-.053-.007-.106-.029-.155s-.057-.094-.102-.13a.624.624 0 00-.391-.102h-.352v.786zM31.772 26.583h-.23a.109.109 0 01-.064-.018.123.123 0 01-.038-.044l-.198-.461h-.993l-.205.461a.107.107 0 01-.101.062h-.23l.872-1.909h.302l.884 1.909zm-1.439-.709h.82l-.346-.777a1.276 1.276 0 01-.065-.179l-.034.1a.98.98 0 01-.032.081l-.343.776zM33.029 24.682c.017.008.032.02.044.034l1.272 1.439v-.067-1.415h.26v1.909h-.145a.136.136 0 01-.06-.011.165.165 0 01-.047-.035l-1.271-1.438a.726.726 0 010 .066v1.419h-.26v-1.909h.154a.15.15 0 01.052.009zM36.748 25.823v.758h-.291v-.758l-.804-1.15h.26a.114.114 0 01.063.016.159.159 0 01.039.043l.503.742a.717.717 0 01.088.169l.038-.082a.745.745 0 01.049-.087l.496-.747a.18.18 0 01.038-.04.098.098 0 01.063-.019h.263l-.806 1.155zM24.923 21.47c.127.014.255.025.384.035 1.962-.763 3.622-2.011 4.772-3.588s1.74-3.415 1.695-5.282l-2.162-1.879c.44 1.988.234 4.043-.594 5.935s-2.245 3.547-4.094 4.779z"/><path fill="var(--color3, #afb1b8)" d="M24.151 21.383l.058.01c1.975-1.228 3.482-2.942 4.323-4.921s.981-4.133.4-6.181l-3.08-2.676c1.246 2.2 1.747 4.661 1.446 7.098s-1.393 4.75-3.147 6.67zM34.596 14.841c-.523 2.052-1.794 3.902-3.624 5.276-.534.404-1.111.763-1.722 1.074 1.49-.38 2.859-1.053 4.003-1.966s2.03-2.042 2.592-3.3l-1.249-1.084z"/><path fill="var(--color3, #afb1b8)" d="M34.106 14.539l-1.778-1.545c-.034 1.762-.61 3.483-1.669 4.986s-2.562 2.731-4.352 3.559h.009c.399 0 .798-.021 1.194-.062 1.673-.593 3.151-1.537 4.303-2.748s1.94-2.65 2.295-4.189zM24.409 6.486L22.287 4.64c-1.897.637-3.528 1.756-4.68 3.212s-1.772 3.179-1.778 4.946c.007 1.952.763 3.846 2.149 5.383s3.322 2.628 5.501 3.101c1.946-2.06 3.085-4.605 3.252-7.266s-.647-5.299-2.323-7.53zM39.008 14.255c-.008-2.316-1.07-4.535-2.955-6.173s-4.439-2.561-7.105-2.567a11.3 11.3 0 00-3.602.582l12.99 11.286a7.647 7.647 0 00.672-3.128z"/></symbol><symbol id="icon-comp-tag" viewBox="0 0 57 32"><path fill="var(--color3, #afb1b8)" d="M28.493 14.618a1.58 1.58 0 01-.323-1.061v-1.538c0-.471.107-.83.321-1.075s.581-.367 1.102-.366c.489 0 .836.104 1.042.313.224.266.333.592.308.92v.361h-.875v-.366c.003-.12-.005-.24-.025-.358a.352.352 0 00-.125-.213.505.505 0 00-.317-.083.533.533 0 00-.333.088.412.412 0 00-.145.235 1.74 1.74 0 00-.034.38v1.866c-.014.18.025.36.112.524.044.055.104.099.175.127s.149.038.226.029a.478.478 0 00.31-.084.375.375 0 00.13-.227c.02-.124.03-.249.027-.374v-.379h.875v.346c.025.342-.082.682-.303.967-.201.228-.544.343-1.047.343s-.884-.122-1.1-.375zM32.137 14.633c-.221-.239-.332-.588-.332-1.05v-1.617c0-.457.11-.802.332-1.037s.591-.351 1.109-.35c.515 0 .882.117 1.103.35.221.235.333.58.333 1.037v1.617c0 .457-.112.807-.337 1.048s-.591.361-1.1.361c-.509 0-.886-.122-1.109-.36zm1.517-.388a.906.906 0 00.105-.479v-1.98a.88.88 0 00-.103-.469c-.044-.057-.106-.101-.179-.129s-.152-.037-.231-.027c-.079-.009-.159 0-.231.028s-.135.072-.18.129a.853.853 0 00-.105.469v1.99a.888.888 0 00.105.479c.051.05.114.091.185.119a.612.612 0 00.635-.119v-.009zM35.735 10.626h.942l.708 2.984.725-2.984h.917l.092 4.308h-.678l-.072-2.994-.699 2.994h-.544l-.725-3.005-.067 3.005h-.685l.085-4.308zM40.176 10.626h1.468c.846 0 1.268.408 1.268 1.223 0 .781-.445 1.171-1.335 1.17h-.5v1.915h-.906l.005-4.308zm1.254 1.841a.7.7 0 00.498-.136.693.693 0 00.13-.486 1.327 1.327 0 00-.044-.391c-.013-.043-.036-.083-.067-.118s-.07-.065-.114-.087a.94.94 0 00-.404-.069h-.352v1.287h.352zM44.218 10.626h.973l.998 4.308h-.844l-.197-.993h-.868l-.203.993h-.857l.998-4.308zm.832 2.815l-.339-1.808-.339 1.808h.678zM46.996 10.626h.634l1.214 2.457v-2.457h.752v4.308h-.603l-1.221-2.565v2.565h-.777l.002-4.308zM51.357 13.291l-1.009-2.659h.85l.616 1.708.578-1.708h.832l-.997 2.659v1.642h-.87v-1.642zM29.892 16.817v.225h-.739v1.75h-.31v-1.75H28.1v-.225h1.792zM32.209 18.793h-.239a.105.105 0 01-.067-.019.102.102 0 01-.04-.045l-.214-.469h-1.026l-.214.469a.119.119 0 01-.033.053.112.112 0 01-.067.019h-.239l.906-1.976h.315l.917 1.968zm-1.5-.734h.855l-.362-.804a1.426 1.426 0 01-.067-.186 4.03 4.03 0 00-.034.105l-.033.083-.359.802zM33.771 18.599a1.018 1.018 0 00.315-.023.961.961 0 00.13-.036c.04-.014.08-.031.121-.048v-.444h-.362c-.009 0-.018-.001-.026-.003s-.016-.007-.023-.012c-.006-.004-.011-.01-.014-.016s-.005-.013-.004-.02v-.152h.703v.757a1.407 1.407 0 01-.609.202 2.591 2.591 0 01-.264.012 1.41 1.41 0 01-.457-.073 1.104 1.104 0 01-.362-.206.956.956 0 01-.234-.313.99.99 0 01-.083-.41.907.907 0 01.316-.726c.103-.089.227-.159.362-.205.155-.05.32-.075.486-.074.084 0 .169.006.252.017a1.21 1.21 0 01.397.128c.056.031.108.065.158.103l-.087.122c-.007.011-.017.021-.029.027s-.027.01-.041.01a.118.118 0 01-.056-.016 1.344 1.344 0 01-.089-.047.727.727 0 00-.121-.053 1.171 1.171 0 00-.167-.044 1.362 1.362 0 00-.23-.017 1.06 1.06 0 00-.35.055.704.704 0 00-.435.402.924.924 0 000 .659.756.756 0 00.446.405c.115.034.237.047.359.039zM36.659 18.567h.989v.225h-1.292v-1.976h.31l-.007 1.75zM38.678 18.792h-.31v-1.976h.31v1.976zM39.83 16.826a.151.151 0 01.047.036l1.324 1.489a.41.41 0 010-.07v-1.472h.27v1.984h-.156a.14.14 0 01-.067-.011.184.184 0 01-.049-.038l-1.323-1.488v1.536h-.259v-1.976h.161c.017 0 .035.003.051.009zM43.753 16.817v.217h-1.098v.652h.89v.21h-.89v.674h1.098v.217h-1.417v-1.971h1.417zM11.286 4.616l13.757 3.372v11.818l-13.757-3.371V4.616zm-.882-1.007V17.01l15.52 3.806V7.417L10.404 3.61z"/><path fill="var(--color3, #afb1b8)" d="M18.722 27.036L3.2 23.227V9.828l15.522 3.807v13.401z"/><path fill="var(--color3, #afb1b8)" d="M10.661 4.465l13.578 3.33-5.774 4.987L4.885 9.45l5.776-4.985zm-.257-.856L3.2 9.828l15.522 3.807 7.202-6.219-15.52-3.807zM19.595 26.282l6.329-5.465-6.329-1.553v7.018z"/></symbol><symbol id="icon-company" viewBox="0 0 57 32"><path fill="var(--color3, #afb1b8)" d="M26.727 3.165h-.073a7.542 7.542 0 00-.336-.012h-.243c-.212 0-.428.005-.642.016a.4.4 0 00-.049 0c-1.944.11-3.848.596-5.609 1.431l-.231.111V16.52l.54-.183a20.64 20.64 0 011.5-.445 18.34 18.34 0 014.317-.574v1.551c-.193.001-.38.007-.568.016h-.045a17.207 17.207 0 00-3.322.51 16.858 16.858 0 00-3.957 1.542V3.792a15.847 15.847 0 014.151-1.688c1.278-.33 2.593-.5 3.913-.504h.228c.273.007.538.019.788.038.658.046 1.31.15 1.95.311v1.527a12.05 12.05 0 00-1.889-.285l-.039-.003c-.132-.011-.263-.022-.386-.022zm2.688 1.561c.339.026.689.038 1.044.038a16.75 16.75 0 004.114-.528 16.958 16.958 0 003.956-1.543v14.875a15.88 15.88 0 01-4.153 1.688 15.948 15.948 0 01-3.913.503c-1 .008-1.997-.11-2.968-.35V4.438c.229.053.465.102.706.142.394.066.81.115 1.214.145zm7.57.115l-.54.182c-.497.167-.997.316-1.5.449a18.23 18.23 0 01-4.483.575c-.352 0-.676-.01-.989-.03l-.43-.028v12.148l.37.033c.343.03.696.045 1.052.045a14.364 14.364 0 003.531-.457c.95-.238 1.874-.57 2.759-.991l.231-.111V4.843zM19.06 24.113a.788.788 0 00-.6-.243.895.895 0 00-.347.065.778.778 0 00-.444.449.893.893 0 00-.062.335v2.023a.94.94 0 00.08.415.718.718 0 00.48.415c.098.028.2.042.302.042a.855.855 0 00.838-.851v-.226h-.529v.18a.458.458 0 01-.031.18.315.315 0 01-.077.114.38.38 0 01-.222.077.266.266 0 01-.249-.109.479.479 0 01-.07-.271v-1.887a.643.643 0 01.065-.302c.027-.043.066-.077.112-.098s.097-.03.147-.024a.28.28 0 01.236.114c.059.078.09.173.088.271v.175h.524v-.206a.953.953 0 00-.242-.639zM22.202 24.09a.92.92 0 00-1.197 0 .82.82 0 00-.205.283.959.959 0 00-.077.392v1.941a.932.932 0 00.077.397.791.791 0 00.205.271.837.837 0 00.279.171.897.897 0 00.918-.171.849.849 0 00.2-.271.934.934 0 00.077-.397v-1.941a.943.943 0 00-.077-.392.867.867 0 00-.2-.283zm-.247 2.616a.355.355 0 01-.105.28.386.386 0 01-.498 0 .352.352 0 01-.105-.28v-1.941a.355.355 0 01.105-.28.386.386 0 01.498 0 .352.352 0 01.105.28v1.941zM26.329 27.573v-3.674h-.509l-.668 1.945h-.009l-.673-1.945h-.503v3.674h.525v-2.235h.009l.514 1.58h.262l.518-1.58h.009v2.235h.525zM29.311 24.157a.727.727 0 00-.297-.201 1.168 1.168 0 00-.38-.057h-.78v3.674h.523v-1.435h.27a.964.964 0 00.472-.1.759.759 0 00.287-.281.875.875 0 00.12-.32c.021-.138.03-.278.028-.418a2.107 2.107 0 00-.051-.525.785.785 0 00-.193-.338zm-.27 1.12a.45.45 0 01-.049.191.296.296 0 01-.135.129.538.538 0 01-.247.046h-.239v-1.249h.27a.506.506 0 01.236.046.3.3 0 01.123.136.537.537 0 01.046.205v.244c0 .085.005.174 0 .252h-.005zM31.791 23.899h-.429l-.809 3.674h.523l.154-.789h.714l.154.789h.524l-.83-3.674zm-.483 2.384l.258-1.332h.009l.256 1.332h-.524zM35.173 26.112h-.009l-.791-2.213h-.503v3.674h.523v-2.209h.011l.8 2.209h.492v-3.674h-.523v2.213zM38.372 23.899l-.421 1.461h-.011l-.421-1.461h-.554l.719 2.121v1.553h.524V26.02l.719-2.121h-.554zM17.6 28.61h.252v.708h.171v-.708h.251v-.145h-.675v.145zM19.721 28.465l-.331.853h.182l.07-.194h.34l.073.194h.186l-.339-.853h-.182zm-.027.516l.116-.316.116.316h-.232zM21.818 29.004h.197v.11a.332.332 0 01-.202.072c-.034.002-.069-.004-.1-.019s-.059-.036-.081-.063a.352.352 0 01-.063-.222c0-.19.082-.285.246-.285.043-.004.086.007.121.032s.061.062.072.104l.169-.033c-.036-.167-.156-.251-.362-.251a.426.426 0 00-.298.11.413.413 0 00-.122.328.465.465 0 00.109.32.408.408 0 00.324.125.511.511 0 00.362-.136v-.336h-.37v.144zM23.959 28.465h-.173v.853h.598v-.145h-.425v-.708zM25.769 28.465h-.173v.853h.173v-.853zM27.539 29.035l-.349-.57h-.167v.853h.161v-.557l.343.557h.171v-.853h-.158v.57zM29.14 28.943h.425v-.145h-.425v-.187h.457v-.145h-.63v.853h.648v-.145h-.475v-.231zM33.02 28.802h-.336v-.336h-.171v.853h.171v-.373h.336v.373h.171v-.853h-.171v.336zM34.629 28.943h.426v-.145h-.426v-.187h.459v-.145h-.63v.853h.646v-.145h-.475v-.231zM36.812 28.943c.148-.023.224-.102.224-.237a.203.203 0 00-.084-.189.479.479 0 00-.25-.05h-.362v.853h.171v-.357h.034a.231.231 0 01.107.019.181.181 0 01.061.062l.186.271h.205L37 29.148a.6.6 0 00-.189-.205zm-.172-.118h-.127v-.214h.135a.445.445 0 01.174.02c.012.011.022.025.029.04a.116.116 0 01-.004.097.114.114 0 01-.032.037.486.486 0 01-.174.02zM38.458 28.943h.425v-.145h-.425v-.187h.459v-.145h-.631v.853h.648v-.145h-.475v-.231z"/></symbol><symbol id="icon-twitter" viewBox="0 0 32 32"><path fill="var(--color4, #fff)" d="M32 16c0 4.418-1.791 8.418-4.686 11.314S20.419 32 16 32s-8.418-1.791-11.314-4.686C1.791 24.419 0 20.419 0 16S1.791 7.582 4.686 4.686 11.581 0 16 0c4.418 0 8.418 1.791 11.314 4.686S32 11.581 32 16z"/><path fill="var(--color3, #afb1b8)" d="M23.273 11.49a6.248 6.248 0 01-1.718.471 2.967 2.967 0 001.312-1.648 5.963 5.963 0 01-1.891.722 2.981 2.981 0 00-5.158 2.039c0 .236.02.464.069.68a8.439 8.439 0 01-6.146-3.119 2.985 2.985 0 00.917 3.985 2.943 2.943 0 01-1.347-.367v.033a2.996 2.996 0 002.389 2.93 2.992 2.992 0 01-.782.098 2.64 2.64 0 01-.565-.051 3.01 3.01 0 002.786 2.077 5.991 5.991 0 01-3.697 1.272 5.59 5.59 0 01-.714-.041 8.393 8.393 0 004.575 1.338c5.487 0 8.487-4.545 8.487-8.485 0-.132-.005-.259-.011-.385a5.95 5.95 0 001.495-1.548z"/></symbol><symbol id="icon-envelope" viewBox="0 0 43 32"><path fill="var(--color5, #757575)" d="M38.667 0H4C1.794 0 0 1.794 0 4v24c0 2.206 1.794 4 4 4h34.667c2.206 0 4-1.794 4-4V4c0-2.206-1.794-4-4-4zm0 2.667c.181 0 .353.038.511.103L21.334 18.236 3.49 2.77a1.32 1.32 0 01.511-.103h34.667zm0 26.666H4A1.334 1.334 0 012.667 28V5.587L20.46 21.008a1.335 1.335 0 001.748 0L40.001 5.587V28c0 .736-.598 1.333-1.333 1.333z"/></symbol><symbol id="icon-facebook" viewBox="0 0 32 32"><path fill="var(--color4, #fff)" d="M32 16c0 4.418-1.791 8.418-4.686 11.314S20.419 32 16 32s-8.418-1.791-11.314-4.686C1.791 24.419 0 20.419 0 16S1.791 7.582 4.686 4.686 11.581 0 16 0c4.418 0 8.418 1.791 11.314 4.686S32 11.581 32 16z"/><path fill="var(--color3, #afb1b8)" d="M18.422 11.142h1.328V8.829a17.317 17.317 0 00-1.935-.102c-1.915 0-3.226 1.204-3.226 3.418v2.037h-2.113v2.585h2.113v6.505h2.59v-6.505h2.027l.322-2.585h-2.35v-1.781c.001-.747.202-1.259 1.243-1.259z"/></symbol><symbol id="icon-clock" viewBox="0 0 34 32"><path fill="var(--color1, #212121)" d="M1.147 20.781H.885v-1.057H.377v1.057H.116v-1.269h1.032v1.269zm.759-.669l.231-.6h.282l-.444 1.047-.036.069a.326.326 0 01-.302.172l-.091-.004-.003-.21a.543.543 0 00.068.003c.037 0 .066-.006.088-.019s.042-.036.057-.071l.032-.083-.445-.905h.282l.281.6zm1.739.669h-.261v-.544h-.51v.544h-.261v-1.269h.261v.514h.51v-.514h.261v1.269zm.696-.519H4.19v.518h-.261v-1.269h.261v.508h.119l.31-.508h.319l-.391.6.432.668h-.312l-.327-.518zm1.749-.538h-.389v1.057H5.44v-1.057h-.383v-.212h1.034v.212zm.679.388l.231-.6h.282l-.444 1.047-.036.069a.326.326 0 01-.302.172l-.091-.004-.003-.21a.543.543 0 00.068.003c.037 0 .066-.006.088-.019s.042-.036.057-.071l.032-.083-.445-.905h.282l.281.6zm1.342.407h-.458l-.087.261h-.278l.472-1.269h.242l.475 1.269h-.278l-.088-.261zm-.388-.211h.317l-.16-.475-.158.475zm1.974-.796v1.269h-.262v-1.057h-.338l-.021.448c-.009.151-.028.27-.058.357s-.073.15-.13.191a.409.409 0 01-.234.061h-.068v-.21l.044-.004c.066-.009.112-.046.14-.113s.046-.187.054-.359l.022-.582h.851zm.543.458h.204c.149 0 .268.036.355.109s.132.169.132.292c0 .123-.044.222-.131.297s-.202.112-.346.113h-.477v-1.269h.263v.458zm0 .21v.39h.208c.067 0 .12-.018.159-.055s.06-.086.06-.147c0-.058-.019-.103-.057-.136s-.09-.051-.156-.052h-.214zm1.942.601h-.261v-.544h-.51v.544h-.261v-1.269h.261v.514h.51v-.514h.261v1.269zm1.325-.606c0 .125-.022.234-.066.329s-.108.167-.19.218a.523.523 0 01-.282.077c-.105 0-.199-.025-.281-.076s-.146-.123-.192-.216a.756.756 0 01-.069-.324v-.063c0-.125.022-.235.067-.329s.109-.168.191-.219c.082-.051.177-.077.282-.077s.2.026.281.077c.082.05.146.123.191.219s.068.204.068.329v.057zm-.265-.057c0-.133-.024-.234-.072-.303s-.116-.104-.204-.104c-.088 0-.155.034-.203.103s-.072.168-.072.3v.062c0 .13.024.23.071.302s.116.107.206.107c.088 0 .155-.034.202-.103s.071-.17.072-.302v-.062zm1.505.24c-.01.137-.06.244-.152.322s-.21.118-.359.118c-.163 0-.291-.055-.384-.164s-.139-.26-.139-.451v-.078c0-.122.021-.229.064-.322a.484.484 0 01.463-.289c.146 0 .264.039.354.118s.141.189.155.33h-.261c-.006-.082-.029-.141-.069-.178s-.099-.056-.179-.056c-.087 0-.152.031-.196.094s-.065.159-.066.29v.096c0 .137.021.237.062.301s.107.095.197.095c.081 0 .141-.018.18-.055s.063-.094.069-.172h.261zm1.154-.634h-.389v1.057h-.261v-1.057h-.383v-.212h1.034v.212zm.479.246h.204c.149 0 .268.036.355.109s.132.169.132.292c0 .123-.044.222-.131.297s-.202.112-.346.113h-.477v-1.269h.263v.458zm0 .21v.39h.208c.067 0 .12-.018.16-.055s.06-.086.06-.147c0-.058-.019-.103-.058-.136s-.09-.051-.156-.052h-.214z"/><path fill="var(--color5, #757575)" d="M.798 23.677c0-.067-.025-.121-.074-.16s-.118-.06-.207-.06c-.074 0-.137.021-.187.062s-.075.091-.075.152H.088c0-.067.018-.128.055-.181s.089-.095.155-.125a.524.524 0 01.22-.045c.142 0 .252.032.33.096s.118.152.118.265c0 .059-.018.112-.054.16s-.086.086-.151.114c.149.05.224.149.224.297 0 .114-.042.204-.127.271s-.198.1-.34.1c-.084 0-.161-.015-.23-.044s-.122-.073-.16-.128-.058-.121-.058-.197h.167c0 .067.026.123.079.167s.12.066.201.066c.091 0 .164-.021.218-.064s.082-.098.082-.168c0-.149-.092-.224-.276-.227H.384v-.138H.54c.085-.002.149-.021.193-.058s.065-.088.065-.155zm1.019.929a.36.36 0 01-.023-.099.359.359 0 01-.268.117c-.093 0-.169-.026-.229-.079s-.089-.12-.089-.2c0-.098.037-.174.112-.228s.18-.082.315-.082h.157v-.074c0-.056-.017-.101-.051-.134s-.083-.051-.149-.051c-.058 0-.106.015-.145.044s-.058.064-.058.105h-.162c0-.047.017-.092.05-.136s.079-.079.136-.105a.456.456 0 01.189-.038c.109 0 .194.027.255.082s.094.129.096.224v.434c0 .087.011.155.033.207v.014h-.169zm-.267-.123c.051 0 .099-.013.144-.039s.078-.06.099-.102v-.194h-.126c-.198 0-.296.058-.296.173 0 .051.017.09.051.119s.077.043.13.043zm.702-.009l.056-.069c.063-.081.099-.203.107-.366l.015-.376h.607v.811h.121v.409h-.161v-.277h-.658v.277h-.161l.001-.409h.073zm.191 0h.433v-.662h-.29l-.01.225c-.01.188-.054.334-.133.438zm1.53.132a.36.36 0 01-.023-.099.359.359 0 01-.268.117c-.093 0-.169-.026-.229-.079s-.089-.12-.089-.2c0-.098.037-.174.112-.228s.18-.082.316-.082h.157v-.074c0-.056-.017-.101-.051-.134s-.083-.051-.149-.051c-.058 0-.106.015-.145.044s-.058.064-.058.105h-.162c0-.047.017-.092.05-.136s.079-.079.136-.105a.456.456 0 01.189-.038c.109 0 .194.027.255.082s.094.129.096.224v.434c0 .087.011.155.033.207v.014h-.169zm-.268-.123c.051 0 .098-.013.144-.039s.078-.06.098-.102v-.194h-.126c-.198 0-.296.058-.296.173 0 .051.017.09.051.119s.077.043.13.043zm1.422.123h-.162v-.342a.841.841 0 01-.218.028c-.118 0-.208-.03-.27-.091s-.093-.146-.094-.258v-.282h.161v.287c.003.141.071.211.203.211a.841.841 0 00.218-.028v-.469h.162v.943zm.894 0a.36.36 0 01-.023-.099.359.359 0 01-.268.117c-.093 0-.169-.026-.229-.079s-.089-.12-.089-.2c0-.098.037-.174.112-.228s.18-.082.316-.082h.157v-.074c0-.056-.017-.101-.051-.134s-.083-.051-.149-.051c-.058 0-.106.015-.145.044s-.058.064-.058.105h-.162c0-.047.017-.092.05-.136s.079-.079.136-.105a.456.456 0 01.189-.038c.109 0 .194.027.255.082s.094.129.096.224v.434c0 .087.011.155.033.207v.014h-.169zm-.267-.123c.051 0 .098-.013.144-.039s.078-.06.098-.102v-.194H5.87c-.198 0-.296.058-.296.173 0 .051.017.09.051.119s.077.043.13.043zm1.163-.358c0-.092.018-.175.054-.249a.402.402 0 01.374-.231c.128 0 .232.044.311.133s.119.207.119.355v.011c0 .092-.018.174-.053.247s-.085.129-.151.17a.412.412 0 01-.225.061c-.128 0-.232-.044-.311-.133s-.119-.207-.119-.353v-.011zm.162.02c0 .105.024.189.072.252s.114.095.195.095c.082 0 .147-.032.195-.096s.072-.155.072-.27c0-.103-.025-.187-.074-.251s-.114-.097-.195-.097c-.08 0-.144.032-.193.095s-.073.154-.073.272zm1.749 0c0 .143-.033.259-.098.347s-.155.132-.267.132a.344.344 0 01-.27-.109v.454h-.161v-1.305h.147l.008.105a.334.334 0 01.274-.122c.113 0 .203.043.268.128s.099.204.099.356v.015zm-.161-.019c0-.106-.023-.19-.068-.252s-.107-.092-.187-.092a.237.237 0 00-.22.13v.451a.237.237 0 00.221.129c.077 0 .139-.03.184-.091s.069-.153.069-.274zm1.029-.33h-.435v.81h-.162v-.943h.597v.133zm.776.81a.36.36 0 01-.023-.099.359.359 0 01-.268.117c-.093 0-.169-.026-.229-.079s-.089-.12-.089-.2c0-.098.037-.174.112-.228s.18-.082.316-.082h.157v-.074c0-.056-.017-.101-.051-.134s-.083-.051-.149-.051c-.058 0-.106.015-.145.044s-.058.064-.058.105h-.162c0-.047.017-.092.05-.136s.079-.079.136-.105a.456.456 0 01.189-.038c.109 0 .194.027.255.082s.094.129.096.224v.434c0 .087.011.155.033.207v.014h-.169zm-.267-.123c.051 0 .098-.013.144-.039s.078-.06.098-.102v-.194h-.126c-.198 0-.296.058-.296.173 0 .051.017.09.051.119s.077.043.13.043zm1.48.123h-.161v-.403h-.433v.403h-.162v-.943h.162v.409h.433v-.409h.161v.943zm.923-.943h.161v.943h-.161v-.688l-.435.688h-.161v-.943h.161v.688l.435-.688zm.993.258c0-.044-.017-.079-.051-.105s-.08-.039-.139-.039c-.057 0-.105.015-.143.044s-.057.064-.057.105h-.16c0-.082.034-.149.103-.201s.154-.078.257-.078c.11 0 .196.024.258.071s.092.114.092.202c0 .042-.013.081-.038.117s-.062.064-.109.085c.11.037.165.11.165.22 0 .087-.033.155-.1.206s-.156.076-.268.076c-.109 0-.198-.026-.269-.079s-.105-.126-.105-.216h.16c0 .046.02.085.061.119s.092.049.153.049c.062 0 .111-.014.149-.043s.057-.065.057-.111c0-.053-.016-.091-.048-.113s-.081-.035-.147-.035h-.161v-.136h.175c.11-.003.165-.048.165-.136zm1.023.685a.36.36 0 01-.023-.099.359.359 0 01-.268.117c-.093 0-.169-.026-.229-.079s-.089-.12-.089-.2c0-.098.037-.174.112-.228s.18-.082.315-.082h.157v-.074c0-.056-.017-.101-.051-.134s-.083-.051-.149-.051c-.057 0-.106.015-.145.044s-.058.064-.058.105h-.162c0-.047.017-.092.05-.136s.079-.079.136-.105a.453.453 0 01.189-.038c.109 0 .194.027.255.082s.093.129.096.224v.434c0 .087.011.155.033.207v.014h-.169zm-.267-.123c.051 0 .099-.013.144-.039s.078-.06.099-.102v-.194h-.126c-.198 0-.296.058-.296.173 0 .051.017.09.051.119s.077.043.13.043zm.723-.82h.162v.811h.434v-.811h.161v.811h.112l-.016.411h-.145v-.28h-.709v-.943zm1.708 0h.161v.943h-.161v-.688l-.435.688h-.161v-.943h.161v.688l.435-.688zm1.084 0h.161v.943h-.161v-.688l-.435.688h-.161v-.943h.161v.688l.435-.688zm.468 1.195l-.092-.063a.415.415 0 00.085-.235v-.146h.158v.126c0 .059-.015.117-.043.176s-.064.106-.108.141zm.92-.252v-.943h.368c.125 0 .222.022.288.066s.101.108.101.193c0 .044-.013.083-.039.118s-.065.062-.116.08c.057.013.103.04.137.079s.052.085.052.139c0 .087-.032.153-.096.199s-.153.069-.269.069h-.426zm.161-.414v.284h.267c.067 0 .118-.012.151-.037s.05-.06.05-.106c0-.094-.069-.141-.207-.141h-.261zm0-.129h.208c.151 0 .227-.044.227-.132s-.072-.134-.214-.137h-.221v.269zm1.351.062c0-.092.018-.175.054-.249a.402.402 0 01.374-.231c.128 0 .232.044.311.133s.119.207.119.355v.011c0 .092-.018.174-.053.247s-.085.129-.151.17a.412.412 0 01-.225.061c-.128 0-.232-.044-.311-.133s-.119-.207-.119-.353v-.011zm.162.02c0 .105.024.189.072.252s.114.095.195.095c.082 0 .147-.032.195-.096s.072-.155.072-.27c0-.103-.025-.187-.074-.251s-.114-.097-.195-.097c-.08 0-.144.032-.193.095s-.073.154-.073.272zm1.331.346c.058 0 .108-.017.151-.052s.067-.078.072-.131h.152c-.003.054-.022.105-.056.154s-.08.088-.138.117a.393.393 0 01-.181.044c-.128 0-.231-.043-.307-.128s-.113-.203-.113-.352v-.027c0-.092.017-.173.05-.245s.082-.127.145-.166a.41.41 0 01.224-.059c.106 0 .193.032.263.095s.108.146.112.247h-.152a.221.221 0 00-.223-.209c-.082 0-.146.03-.191.089s-.067.144-.067.255v.03c0 .109.022.192.067.251s.109.088.192.088zm.567-.366c0-.092.018-.175.054-.249a.402.402 0 01.374-.231c.128 0 .232.044.311.133s.119.207.119.355v.011c0 .092-.018.174-.053.247s-.085.129-.151.17a.412.412 0 01-.225.061c-.128 0-.232-.044-.311-.133s-.119-.207-.119-.353v-.011zm.162.02c0 .105.024.189.072.252s.114.095.195.095c.082 0 .147-.032.195-.096s.072-.155.072-.27c0-.103-.025-.187-.074-.251s-.114-.097-.195-.097c-.08 0-.144.032-.192.095s-.073.154-.073.272zm1.366-.428c.119 0 .213.04.284.119s.107.183.107.313v.015c0 .089-.017.169-.052.239a.39.39 0 01-.369.221c-.127 0-.229-.042-.306-.126s-.116-.198-.116-.341v-.079c0-.198.037-.356.11-.472s.182-.188.326-.213c.081-.015.136-.032.165-.053s.043-.05.043-.086h.132c0 .073-.017.129-.05.17s-.085.069-.157.086l-.12.027c-.096.023-.168.061-.216.115s-.079.125-.093.214a.396.396 0 01.312-.148zm-.032.132c-.079 0-.142.027-.188.08s-.07.126-.07.221v.014c0 .101.023.181.07.241s.11.088.19.088.144-.03.19-.089.07-.146.07-.26c0-.089-.024-.16-.071-.214s-.11-.081-.191-.081zm1.049.774c-.128 0-.232-.042-.312-.126s-.12-.197-.12-.337v-.03c0-.093.018-.177.053-.25s.086-.131.15-.172a.374.374 0 01.209-.063c.123 0 .218.04.286.121s.102.196.102.347v.067h-.639c.002.093.029.168.081.226s.118.085.199.085c.057 0 .105-.012.145-.035s.074-.054.104-.092l.099.077a.398.398 0 01-.356.182zm-.02-.845c-.065 0-.12.024-.164.071s-.071.113-.082.199h.472v-.012c-.005-.082-.027-.145-.066-.19s-.093-.068-.16-.068zm1.399.828h-.161v-.403h-.433v.403H26v-.943h.162v.409h.433v-.409h.161v.943zm1.084 0h-.161v-.403h-.433v.403h-.162v-.943h.162v.409h.433v-.409h.161v.943zm.271-.481c0-.092.018-.175.054-.249a.402.402 0 01.374-.231c.128 0 .232.044.311.133s.119.207.119.355v.011c0 .092-.018.174-.053.247s-.085.129-.151.17a.412.412 0 01-.225.061c-.128 0-.232-.044-.311-.133s-.118-.207-.118-.353v-.011zm.162.02c0 .105.024.189.072.252s.114.095.195.095c.082 0 .147-.032.195-.096s.072-.155.072-.27c0-.103-.025-.187-.074-.251s-.114-.097-.195-.097c-.08 0-.144.032-.193.095s-.073.154-.073.272zm1.33.346c.058 0 .108-.017.151-.052s.067-.078.072-.131h.152c-.003.054-.022.105-.056.154s-.08.088-.138.117a.393.393 0 01-.181.044c-.128 0-.231-.043-.307-.128s-.113-.203-.113-.352v-.027c0-.092.017-.173.05-.245s.082-.127.145-.166a.41.41 0 01.224-.059c.106 0 .193.032.263.095s.108.146.112.247h-.152a.221.221 0 00-.223-.209c-.082 0-.146.03-.191.089s-.067.144-.067.255v.03c0 .109.022.192.067.251s.109.088.192.088zm1.31-.698h-.316v.812h-.161v-.812h-.31v-.131h.788v.131zm.821-.13h.161v.943h-.161v-.688l-.435.688h-.161v-.943h.161v.688l.435-.688zM.874 27.256H.761v.41H.6v-.41H.487l-.264.41H.019l.337-.488-.305-.455h.195l.243.39H.6v-.39h.161v.39h.11l.245-.39h.195l-.306.456.337.487h-.204l-.264-.41zm1.042.427c-.128 0-.232-.042-.312-.126s-.12-.197-.12-.337v-.03c0-.093.018-.177.053-.25s.086-.131.15-.172a.377.377 0 01.209-.063c.123 0 .218.04.286.121s.102.196.102.347v.067h-.639c.002.093.029.168.081.226s.119.085.199.085c.057 0 .105-.012.145-.035s.074-.054.104-.092l.099.077a.398.398 0 01-.356.182zm-.02-.846c-.065 0-.12.024-.164.071s-.071.113-.082.199h.472v-.012c-.005-.082-.027-.145-.066-.19s-.093-.068-.16-.068zm1.921.367c0 .143-.033.259-.099.347s-.155.132-.267.132a.345.345 0 01-.27-.109v.454H3.02v-1.305h.147l.008.105a.334.334 0 01.274-.122c.113 0 .203.043.268.128s.099.204.099.356v.015zm-.161-.018c0-.106-.023-.19-.068-.252s-.107-.092-.187-.092a.237.237 0 00-.22.13v.451a.237.237 0 00.221.129c.077 0 .139-.03.184-.091s.069-.153.069-.274zm1.003.479a.36.36 0 01-.023-.099.359.359 0 01-.268.117c-.093 0-.169-.026-.229-.079s-.089-.12-.089-.2c0-.098.037-.174.112-.228s.18-.082.316-.082h.157v-.074c0-.056-.017-.101-.051-.134s-.083-.051-.149-.051c-.058 0-.106.015-.145.044s-.058.064-.058.105H4.07c0-.047.017-.092.05-.136s.079-.079.136-.105a.456.456 0 01.189-.038c.109 0 .194.027.255.082s.094.129.096.224v.434c0 .087.011.155.033.207v.014H4.66zm-.268-.123c.051 0 .098-.013.144-.039s.078-.06.098-.102v-.194h-.126c-.198 0-.296.058-.296.173 0 .051.017.09.051.119s.077.043.13.043zm1.253-.09l.321-.729h.201v.943h-.161v-.686l-.305.686h-.112l-.311-.701v.701h-.161v-.943h.209l.319.729zm1.129-.188h-.118v.402h-.162v-.943h.162v.399h.105l.317-.399h.195l-.373.453.404.49h-.205l-.327-.402zm1.334-.542h.161v.943h-.161v-.688l-.435.688h-.161v-.943h.161v.688l.435-.688zm1.58 0h.161v.943h-.161v-.688l-.435.688h-.161v-.943h.161v.688l.435-.688zm1.513.73l.321-.729h.201v.943h-.161v-.686l-.305.686h-.112l-.311-.701v.701h-.161v-.943h.209l.319.729zm1.226.231c-.128 0-.232-.042-.312-.126s-.12-.197-.12-.337v-.03c0-.093.018-.177.053-.25s.086-.131.15-.172a.377.377 0 01.209-.063c.123 0 .218.04.286.121s.102.196.102.347v.067h-.639c.002.093.029.168.081.226s.119.085.199.085c.057 0 .105-.012.145-.035s.074-.054.104-.092l.098.077a.398.398 0 01-.356.182zm-.02-.846c-.065 0-.12.024-.164.071s-.071.113-.082.199h.472v-.012c-.005-.082-.027-.145-.066-.19s-.093-.068-.16-.068zm1.007.714c.057 0 .108-.017.151-.052s.067-.078.071-.131h.152c-.003.054-.021.105-.056.154s-.08.088-.138.117a.393.393 0 01-.181.044c-.128 0-.231-.043-.307-.128s-.113-.203-.113-.352v-.027c0-.092.017-.173.051-.245s.082-.127.145-.166a.41.41 0 01.224-.059c.106 0 .194.032.263.095s.108.146.112.247h-.152a.221.221 0 00-.223-.209c-.082 0-.145.03-.191.089s-.067.144-.067.255v.03c0 .109.022.192.067.251s.109.088.192.088zm1.31-.698h-.316v.812h-.161v-.812h-.31v-.131h.788v.131zm.132.332c0-.092.018-.175.054-.249a.402.402 0 01.374-.231c.128 0 .232.044.311.133s.119.207.119.355v.011c0 .092-.018.174-.053.247s-.085.129-.151.17a.412.412 0 01-.225.061c-.128 0-.232-.044-.311-.133s-.119-.207-.119-.353v-.011zm.162.019c0 .105.024.189.072.252s.114.095.195.095c.082 0 .147-.032.195-.096s.072-.155.072-.27c0-.103-.025-.187-.074-.251s-.114-.097-.195-.097c-.08 0-.144.032-.193.095s-.073.154-.073.272zm1.405-.019c0-.092.018-.175.054-.249a.402.402 0 01.374-.231c.128 0 .232.044.311.133s.119.207.119.355v.011c0 .092-.018.174-.053.247s-.085.129-.151.17a.412.412 0 01-.225.061c-.128 0-.232-.044-.311-.133s-.119-.207-.119-.353v-.011zm.162.019c0 .105.024.189.072.252s.114.095.195.095c.082 0 .147-.032.195-.096s.072-.155.072-.27c0-.103-.025-.187-.074-.251s-.114-.097-.195-.097c-.08 0-.144.032-.192.095s-.073.154-.073.272zm1.366-.428c.119 0 .213.04.284.119s.107.183.107.313v.015c0 .089-.017.169-.052.239a.39.39 0 01-.369.221c-.127 0-.229-.042-.306-.126s-.116-.198-.116-.341v-.079c0-.198.037-.356.11-.472s.182-.188.326-.213c.081-.015.136-.032.165-.053s.043-.05.043-.086h.132c0 .073-.017.129-.05.17s-.085.069-.157.086l-.12.027c-.096.023-.168.061-.216.115s-.079.125-.093.214a.396.396 0 01.312-.148zm-.031.133c-.079 0-.142.027-.188.08s-.07.126-.07.221v.014c0 .101.023.181.07.241s.11.088.19.088.143-.03.19-.089.07-.146.07-.26c0-.089-.024-.16-.071-.214s-.11-.081-.191-.081zm.966.52l.22-.707h.173l-.379 1.088c-.059.157-.152.235-.28.235l-.031-.003-.06-.011V27.9l.043.003c.055 0 .097-.011.127-.033s.056-.062.076-.121l.036-.096-.336-.932h.176l.235.707zm1.303.236h-.162v-.342a.841.841 0 01-.218.028c-.118 0-.208-.03-.27-.091s-.093-.146-.094-.258v-.282h.161v.287c.003.141.071.211.203.211a.841.841 0 00.218-.028v-.469h.162v.943zm.703.018c-.128 0-.232-.042-.312-.126s-.12-.197-.12-.337v-.03c0-.093.018-.177.053-.25s.086-.131.15-.172a.374.374 0 01.209-.063c.123 0 .218.04.286.121s.102.196.102.347v.067h-.639c.002.093.029.168.081.226s.118.085.199.085c.057 0 .105-.012.145-.035s.074-.054.104-.092l.098.077a.398.398 0 01-.356.182zm-.02-.846c-.065 0-.12.024-.164.071s-.072.113-.082.199h.472v-.012c-.005-.082-.027-.145-.066-.19s-.093-.068-.16-.068zm1.399.828h-.161v-.403h-.433v.403h-.162v-.943h.162v.409h.433v-.409h.161v.943zm.924-.943h.161v.943h-.161v-.688l-.435.688h-.161v-.943h.161v.688l.435-.688zm1.194 0v.943h-.162v-.367h-.243l-.222.367h-.174l.237-.391c-.06-.022-.107-.056-.139-.102s-.048-.101-.048-.162c0-.086.032-.155.097-.207s.151-.08.259-.08h.396zm-.59.29c0 .046.016.083.047.112s.073.042.125.043h.256v-.313h-.232c-.06 0-.107.015-.143.044s-.053.067-.053.114zm1.693.252h-.118v.402h-.162v-.943h.162v.399h.105l.317-.399h.195l-.373.453.404.49h-.205l-.327-.402zm1.305.401a.36.36 0 01-.023-.099.359.359 0 01-.268.117c-.093 0-.169-.026-.229-.079s-.089-.12-.089-.2c0-.098.037-.174.112-.228s.18-.082.316-.082h.157v-.074c0-.056-.017-.101-.051-.134s-.083-.051-.149-.051c-.058 0-.106.015-.145.044s-.058.064-.058.105h-.162c0-.047.017-.092.05-.136s.079-.079.136-.105a.456.456 0 01.189-.038c.109 0 .194.027.255.082s.094.129.096.224v.434c0 .087.011.155.033.207v.014h-.169zm-.267-.123c.051 0 .099-.013.144-.039s.078-.06.099-.102v-.194h-.126c-.197 0-.296.058-.296.173 0 .051.017.09.051.119s.077.043.13.043zm.702-.008l.056-.069c.063-.081.098-.203.107-.366l.015-.376h.607v.811h.121v.409h-.161v-.277h-.658v.277h-.161l.001-.409h.073zm.191 0h.433v-.662h-.29l-.01.225c-.01.188-.054.334-.133.438zm1.744-.33c0 .143-.033.259-.099.347s-.155.132-.267.132a.344.344 0 01-.27-.109v.454h-.161v-1.305h.147l.008.105a.334.334 0 01.274-.122c.113 0 .203.043.268.128s.099.204.099.356v.015zm-.161-.018c0-.106-.023-.19-.068-.252s-.107-.092-.187-.092a.237.237 0 00-.22.13v.451a.237.237 0 00.221.129c.077 0 .139-.03.184-.091s.069-.153.069-.274zm.377-.001c0-.092.018-.175.054-.249a.402.402 0 01.374-.231c.128 0 .232.044.311.133s.119.207.119.355v.011c0 .092-.018.174-.053.247s-.085.129-.151.17a.412.412 0 01-.225.061c-.128 0-.232-.044-.311-.133s-.119-.207-.119-.353v-.011zm.163.019c0 .105.024.189.072.252s.114.095.195.095c.082 0 .147-.032.195-.096s.072-.155.072-.27c0-.103-.025-.187-.074-.251s-.114-.097-.195-.097c-.08 0-.144.032-.193.095s-.073.154-.073.272zm.966.461v-.943h.368c.126 0 .222.022.288.066s.101.108.101.193c0 .044-.013.083-.039.118s-.065.062-.116.08c.057.013.103.04.137.079s.052.085.052.139c0 .087-.032.153-.096.199s-.153.069-.269.069h-.426zm.162-.414v.284h.267c.067 0 .118-.012.151-.037s.05-.06.05-.106c0-.094-.069-.141-.207-.141h-.261zm0-.129h.208c.151 0 .227-.044.227-.132s-.071-.134-.214-.137h-.221v.269zM.137 30.725v-.943h.368c.125 0 .222.022.288.066s.101.108.101.193c0 .044-.013.083-.039.118s-.065.062-.116.08c.057.013.103.04.137.079s.052.085.052.139c0 .087-.032.153-.096.199s-.153.069-.269.069H.137zm.161-.414v.284h.267c.067 0 .118-.012.151-.037s.051-.06.051-.106c0-.094-.069-.141-.207-.141H.299zm0-.129h.208c.151 0 .227-.044.227-.132s-.071-.134-.214-.137H.298v.269zm1.67-.4v.943h-.162v-.81h-.321l-.019.353c-.01.162-.038.278-.082.348s-.113.106-.208.109h-.065v-.142l.046-.004c.052-.006.09-.036.112-.091s.037-.156.044-.303l.017-.404h.637zm.704.961c-.128 0-.232-.042-.312-.126s-.12-.197-.12-.337v-.03c0-.093.018-.177.053-.25s.086-.131.15-.172a.377.377 0 01.209-.063c.123 0 .218.04.286.121s.102.196.102.347v.067h-.639c.002.093.029.168.081.226s.119.085.199.085c.057 0 .105-.012.145-.035s.074-.054.104-.092l.098.077a.398.398 0 01-.356.182zm-.02-.846c-.065 0-.12.024-.164.071s-.071.113-.082.199h.472v-.012c-.005-.082-.027-.145-.066-.19s-.093-.068-.16-.068zm1.341.828h-.162v-.342a.836.836 0 01-.218.028c-.118 0-.208-.03-.27-.091s-.093-.146-.094-.258v-.282h.161v.287c.003.141.071.211.203.211a.841.841 0 00.218-.028v-.469h.162v.943zm.703.018c-.128 0-.232-.042-.312-.126s-.12-.197-.12-.337v-.03c0-.093.018-.177.053-.25s.086-.131.15-.172a.374.374 0 01.209-.063c.123 0 .218.04.286.121s.102.196.102.347v.067h-.639c.002.093.029.168.081.226s.119.085.199.085c.057 0 .105-.012.145-.035s.074-.054.104-.092l.098.077a.398.398 0 01-.356.182zm-.02-.846c-.065 0-.12.024-.164.071s-.071.113-.082.199h.472v-.012c-.005-.082-.027-.145-.066-.19s-.093-.068-.16-.068zm1.319.016h-.316v.812h-.161v-.812h-.31v-.131h.788v.131zm1.226.127c0-.044-.017-.079-.051-.105s-.08-.039-.139-.039c-.057 0-.105.015-.143.044s-.057.064-.057.105h-.16c0-.082.034-.149.103-.201s.154-.078.257-.078c.11 0 .196.024.258.071s.092.114.092.202c0 .042-.013.081-.038.117s-.062.064-.109.085c.11.037.165.11.165.22 0 .087-.033.155-.1.206s-.156.076-.268.076c-.109 0-.198-.026-.269-.079s-.105-.126-.105-.216h.16c0 .046.02.085.061.119s.092.049.153.049c.062 0 .111-.014.149-.043s.057-.065.057-.111c0-.053-.016-.091-.048-.113s-.08-.035-.147-.035h-.161v-.136h.175c.11-.003.165-.048.165-.136zm1.023.685a.36.36 0 01-.023-.099.359.359 0 01-.268.117c-.093 0-.169-.026-.229-.079s-.089-.12-.089-.2c0-.098.037-.174.112-.228s.18-.082.316-.082h.157v-.074c0-.056-.017-.101-.051-.134s-.083-.051-.149-.051c-.058 0-.106.015-.145.044s-.058.064-.058.105h-.162c0-.047.017-.092.05-.136s.079-.079.136-.105a.456.456 0 01.189-.038c.109 0 .194.027.255.082s.094.129.096.224v.434c0 .087.011.155.033.207v.014h-.169zm-.267-.123c.051 0 .098-.013.144-.039s.078-.06.098-.102v-.194h-.126c-.198 0-.296.058-.296.173 0 .051.017.09.051.119s.077.043.13.043zm1.584.009c.057 0 .108-.017.151-.052s.067-.078.071-.131h.153c-.003.054-.021.105-.056.154s-.08.088-.138.117a.393.393 0 01-.181.044c-.128 0-.231-.043-.307-.128s-.113-.203-.113-.352v-.027c0-.092.017-.173.051-.245s.082-.127.145-.166a.41.41 0 01.224-.059c.106 0 .193.032.263.095s.108.146.112.247h-.153a.221.221 0 00-.223-.209c-.082 0-.146.03-.191.089s-.067.144-.067.255v.03c0 .109.022.192.067.251s.109.088.192.088zm.567-.366c0-.092.018-.175.054-.249a.402.402 0 01.374-.231c.128 0 .232.044.311.133s.119.207.119.355v.011c0 .092-.018.174-.053.247s-.085.129-.151.17a.412.412 0 01-.225.061c-.128 0-.232-.044-.311-.133s-.119-.207-.119-.353v-.011zm.162.019c0 .105.024.189.072.252s.114.095.195.095c.082 0 .147-.032.195-.096s.072-.155.072-.27c0-.103-.025-.187-.074-.251s-.114-.097-.195-.097c-.08 0-.144.032-.193.095s-.073.154-.073.272zm1.366-.428c.119 0 .213.04.284.119s.107.183.107.313v.015c0 .089-.017.169-.051.239s-.084.124-.148.163a.426.426 0 01-.221.058c-.127 0-.229-.042-.306-.126s-.116-.198-.116-.341v-.079c0-.198.037-.356.11-.472s.182-.188.326-.213c.081-.015.136-.032.165-.053s.043-.05.043-.086h.132c0 .073-.017.129-.05.17s-.085.069-.157.086l-.12.027c-.096.023-.168.061-.216.115s-.079.125-.093.214a.396.396 0 01.312-.148zm-.032.133c-.079 0-.142.027-.188.08s-.07.126-.07.221v.014c0 .101.023.181.07.241s.11.088.19.088.143-.03.19-.089.07-.146.07-.26c0-.089-.024-.16-.071-.214s-.11-.081-.191-.081zm.615.276c0-.092.018-.175.054-.249a.402.402 0 01.374-.231c.128 0 .232.044.311.133s.119.207.119.355v.011c0 .092-.018.174-.053.247s-.085.129-.151.17a.412.412 0 01-.225.061c-.128 0-.232-.044-.311-.133s-.119-.207-.119-.353v-.011zm.162.019c0 .105.024.189.072.252s.114.095.195.095c.082 0 .147-.032.195-.096s.072-.155.072-.27c0-.103-.025-.187-.074-.251s-.114-.097-.195-.097c-.08 0-.144.032-.193.095s-.073.154-.073.272zm1.562-.482h.161v.943h-.161v-.688l-.435.688h-.161v-.943h.161v.688l.435-.688zm.044-.343c0 .07-.024.127-.072.17s-.11.064-.188.064-.141-.021-.189-.064-.072-.099-.072-.169h.132c0 .041.011.073.033.096s.054.034.097.034c.041 0 .072-.011.095-.034s.035-.055.035-.096h.131zm.434 1.202c0-.028.008-.051.024-.07s.042-.028.075-.028.058.009.075.028a.101.101 0 01.026.07c0 .027-.009.049-.026.067s-.042.027-.075.027-.058-.009-.075-.027a.097.097 0 01-.024-.067z"/><path fill="var(--color6, #f5f4fa)" d="M.51 0h33.402a.51.51 0 01.51.51v14.279a.51.51 0 01-.51.51H.51a.51.51 0 01-.51-.51V.51A.51.51 0 01.51 0z"/><path fill="var(--color1, #212121)" d="M21.477 7.455a4.268 4.268 0 10-5.566 4.067.182.182 0 00.226-.117l1.078-3.416a.534.534 0 10-.234-1.014l-1.424-1.424a.178.178 0 00-.251.004.177.177 0 000 .247l1.423 1.425a.523.523 0 00.15.644l-1.027 3.255a3.916 3.916 0 112.948-.097l-.111-.523a.177.177 0 00-.211-.137.187.187 0 00-.082.041l-1.07.955a.178.178 0 00.064.302l1.366.436a.178.178 0 00.229-.206l-.109-.513a4.255 4.255 0 002.602-3.929zm-4.268-.178a.178.178 0 010 .356.178.178 0 010-.356zm.586 4.145l.609-.543.168.792-.777-.249z"/><path fill="var(--color2, #2196f3)" d="M17.031 4.075v.356a.178.178 0 00.356 0v-.356a.178.178 0 00-.356 0zM13.83 7.277a.178.178 0 000 .356h.356a.178.178 0 000-.356h-.356zM20.588 7.632a.178.178 0 000-.356h-.356a.178.178 0 000 .356h.356z"/></symbol><symbol id="icon-nout" viewBox="0 0 34 32"><path fill="var(--color1, #212121)" d="M1.147 20.781H.885v-1.057H.377v1.057H.116v-1.269h1.032v1.269zm1.315-1.269v1.269H2.2v-1.057h-.338l-.021.448c-.009.151-.028.27-.058.357s-.073.15-.13.191a.409.409 0 01-.234.061h-.068v-.21l.044-.004c.066-.009.112-.046.14-.113s.046-.187.054-.359l.022-.582h.851zm1.014 1.007h-.458l-.087.261h-.278l.472-1.269h.242l.475 1.269h-.278l-.088-.261zm-.387-.211h.317l-.159-.475-.158.475zm1.958.473h-.261v-.544h-.51v.544h-.261v-1.269h.261v.514h.51v-.514h.261v1.269zm1.044-1.269h.262v1.269h-.262v-.843l-.508.843h-.261v-1.269h.261v.845l.508-.845zm.804.822v.447h-.261v-1.269h.495c.095 0 .179.017.251.052a.39.39 0 01.225.368c0 .124-.043.222-.128.294s-.202.107-.353.107h-.229zm0-.212h.234c.069 0 .122-.016.158-.049s.055-.079.055-.139c0-.062-.018-.112-.055-.151s-.087-.058-.152-.059h-.24v.398zm1.986.053c0 .125-.022.234-.066.329s-.107.167-.19.218a.523.523 0 01-.282.077c-.105 0-.199-.025-.281-.076s-.146-.123-.192-.216a.756.756 0 01-.069-.324v-.063c0-.125.022-.235.067-.329s.109-.168.191-.219c.082-.051.177-.077.282-.077s.2.026.281.077c.082.05.146.123.191.219s.068.204.068.329v.057zm-.265-.057c0-.133-.024-.234-.071-.303s-.116-.104-.204-.104c-.088 0-.155.034-.203.103s-.072.168-.072.3v.062c0 .13.024.23.071.302s.116.107.206.107c.088 0 .155-.034.202-.103s.071-.17.071-.302v-.062zm.509.663v-1.269h.444c.154 0 .271.03.35.089s.119.145.119.259c0 .062-.016.117-.048.165s-.076.082-.133.104c.065.016.116.049.153.098s.057.11.057.181c0 .122-.039.214-.117.277s-.189.095-.333.096h-.493zm.261-.553v.343h.224c.062 0 .11-.015.144-.044s.052-.07.052-.122c0-.116-.06-.175-.18-.177h-.24zm0-.184h.193c.132-.002.198-.055.198-.158 0-.058-.017-.099-.051-.124s-.086-.038-.158-.038h-.183v.32zm1.649.475h-.458l-.087.261h-.278l.472-1.269h.242l.475 1.269h-.278l-.088-.261zm-.388-.211h.317l-.159-.475-.158.475zm1.959.473h-.261v-.544h-.51v.544h-.261v-1.269h.261v.514h.51v-.514h.261v1.269zm1.043-1.269h.262v1.269h-.262v-.843l-.508.843h-.261v-1.269h.261v.845l.508-.845zm1.306.719h-.502v.34h.589v.21h-.851v-1.269h.849v.212h-.587v.302h.502v.205z"/><path fill="var(--color5, #757575)" d="M.315 24.109v.497H.148v-1.269h.468c.139 0 .248.035.326.106s.119.165.119.282c0 .123-.039.218-.116.285s-.187.099-.33.099H.316zm0-.137h.301c.089 0 .158-.021.206-.063s.071-.103.071-.183c0-.076-.024-.136-.071-.181s-.113-.069-.196-.071h-.31v.498zm1.558.634a.36.36 0 01-.023-.099.359.359 0 01-.268.117c-.093 0-.169-.026-.229-.079s-.089-.12-.089-.2c0-.098.037-.174.112-.228s.18-.082.315-.082h.157v-.074c0-.056-.017-.101-.051-.134s-.083-.051-.149-.051c-.058 0-.106.015-.145.044s-.058.064-.058.105h-.162c0-.047.017-.092.05-.136s.079-.079.136-.105a.456.456 0 01.189-.038c.109 0 .194.027.255.082s.094.129.096.224v.434c0 .087.011.155.033.207v.014h-.169zm-.267-.123c.051 0 .099-.013.144-.039s.078-.06.099-.102v-.194h-.126c-.198 0-.296.058-.296.173 0 .051.017.09.051.119s.077.043.13.043zm.724.123v-.943h.368c.126 0 .222.022.288.066s.101.108.101.193c0 .044-.013.083-.039.118s-.065.062-.116.08c.057.013.103.04.137.079s.052.085.052.139c0 .087-.032.153-.096.199s-.153.069-.269.069H2.33zm.162-.414v.284h.267c.067 0 .118-.012.151-.037s.051-.06.051-.106c0-.094-.069-.141-.207-.141h-.261zm0-.129H2.7c.151 0 .227-.044.227-.132s-.071-.134-.214-.137h-.22v.269zm1.667.543h-.161v-.403h-.433v.403h-.162v-.943h.162v.409h.433v-.409h.161v.943zm.489-.618h.245c.107.001.191.029.254.084s.093.129.093.222c0 .094-.032.17-.096.227s-.15.085-.258.085h-.399v-.943h.161v.325zm.929.618h-.162v-.943h.162v.943zm-.929-.487v.355h.24c.06 0 .107-.015.14-.046s.05-.074.05-.128c0-.052-.016-.095-.049-.128s-.077-.051-.135-.052h-.246zm1.807.273l.321-.729h.201v.943h-.161v-.686l-.305.686h-.112l-.311-.701v.701h-.161v-.943h.209l.319.729zm1.288-.267c0-.092.018-.175.054-.249a.402.402 0 01.374-.231c.128 0 .232.044.311.133s.119.207.119.355v.011c0 .092-.018.174-.053.247s-.085.129-.151.17a.412.412 0 01-.225.061c-.128 0-.232-.044-.311-.133s-.119-.207-.119-.353v-.011zm.163.02c0 .105.024.189.072.252s.114.095.195.095c.082 0 .147-.032.195-.096s.072-.155.072-.27c0-.103-.025-.187-.074-.251s-.114-.097-.195-.097c-.08 0-.144.032-.193.095s-.073.154-.073.272zm1.366-.428c.118 0 .213.04.284.119s.107.183.107.313v.015c0 .089-.017.169-.051.239s-.084.124-.148.163a.426.426 0 01-.221.058c-.127 0-.229-.042-.306-.126s-.116-.198-.116-.341v-.079c0-.198.037-.356.11-.472s.182-.188.326-.213c.081-.015.136-.032.165-.053s.043-.05.043-.086h.132c0 .073-.017.129-.05.17s-.085.069-.157.086l-.12.027c-.096.023-.168.061-.216.115s-.079.125-.093.214a.396.396 0 01.312-.148zm-.032.132c-.079 0-.142.027-.188.08s-.07.126-.07.221v.014c0 .101.023.181.07.241s.11.088.19.088.143-.03.19-.089.07-.146.07-.26c0-.089-.024-.16-.071-.214s-.11-.081-.191-.081zm1.439.296c0 .143-.033.259-.098.347s-.155.132-.267.132a.344.344 0 01-.27-.109v.454h-.161v-1.305h.147l.008.105a.334.334 0 01.274-.122c.113 0 .203.043.268.128s.099.204.099.356v.015zm-.162-.019c0-.106-.023-.19-.068-.252s-.107-.092-.187-.092a.237.237 0 00-.22.13v.451a.237.237 0 00.221.129c.077 0 .139-.03.184-.091s.069-.153.069-.274zm1.003.48a.36.36 0 01-.023-.099.359.359 0 01-.268.117c-.093 0-.169-.026-.229-.079s-.089-.12-.089-.2c0-.098.037-.174.112-.228s.18-.082.316-.082h.157v-.074c0-.056-.017-.101-.051-.134s-.083-.051-.149-.051c-.058 0-.106.015-.145.044s-.058.064-.058.105h-.162c0-.047.017-.092.05-.136s.079-.079.136-.105a.456.456 0 01.189-.038c.109 0 .194.027.255.082s.094.129.096.224v.434c0 .087.011.155.033.207v.014h-.169zm-.268-.123c.051 0 .098-.013.144-.039s.078-.06.098-.102v-.194h-.126c-.198 0-.296.058-.296.173 0 .051.017.09.051.119s.077.043.13.043zm1.229-.562c0-.044-.017-.079-.051-.105s-.08-.039-.139-.039c-.057 0-.105.015-.143.044s-.057.064-.057.105h-.16c0-.082.034-.149.103-.201s.154-.078.257-.078c.11 0 .196.024.258.071s.092.114.092.202c0 .042-.013.081-.038.117s-.062.064-.109.085c.11.037.165.11.165.22 0 .087-.033.155-.1.206s-.156.076-.268.076c-.109 0-.198-.026-.269-.079s-.105-.126-.105-.216h.16c0 .046.02.085.061.119s.092.049.153.049c.062 0 .111-.014.149-.043s.057-.065.057-.111c0-.053-.016-.091-.048-.113s-.08-.035-.147-.035h-.161v-.136h.175c.11-.003.165-.048.165-.136zm.398.204c0-.092.018-.175.054-.249a.402.402 0 01.374-.231c.128 0 .232.044.311.133s.119.207.119.355v.011c0 .092-.018.174-.053.247s-.085.129-.151.17a.412.412 0 01-.225.061c-.128 0-.232-.044-.311-.133s-.119-.207-.119-.353v-.011zm.163.02c0 .105.024.189.072.252s.114.095.195.095c.082 0 .147-.032.195-.096s.072-.155.072-.27c0-.103-.025-.187-.074-.251s-.114-.097-.195-.097c-.08 0-.144.032-.193.095s-.073.154-.073.272zm1.495.247l.321-.729h.201v.943h-.161v-.686l-.305.686h-.112l-.311-.701v.701h-.161v-.943h.209l.319.729zm1.625-.188h-.118v.402h-.162v-.943h.162v.399h.105l.317-.399h.195l-.373.453.404.49h-.205l-.327-.402zm.662-.079c0-.092.018-.175.054-.249a.402.402 0 01.374-.231c.128 0 .232.044.311.133s.119.207.119.355v.011c0 .092-.018.174-.053.247s-.085.129-.151.17a.412.412 0 01-.225.061c-.128 0-.232-.044-.311-.133s-.119-.207-.119-.353v-.011zm.162.02c0 .105.024.189.072.252s.114.095.195.095c.082 0 .147-.032.195-.096s.072-.155.072-.27c0-.103-.025-.187-.074-.251s-.114-.097-.195-.097c-.08 0-.144.032-.193.095s-.073.154-.073.272zm1.722.461h-.161v-.403h-.433v.403h-.162v-.943h.162v.409h.433v-.409h.161v.943zm.692-.115c.058 0 .108-.017.151-.052s.067-.078.072-.131h.152c-.003.054-.022.105-.056.154s-.08.088-.138.117a.393.393 0 01-.181.044c-.128 0-.231-.043-.307-.128s-.113-.203-.113-.352v-.027c0-.092.017-.173.051-.245s.082-.127.145-.166a.41.41 0 01.224-.059c.106 0 .193.032.263.095s.108.146.112.247h-.152a.221.221 0 00-.223-.209c-.082 0-.146.03-.191.089s-.067.144-.067.255v.03c0 .109.022.192.067.251s.109.088.192.088zm.918-.122l.22-.707h.173l-.379 1.088c-.059.157-.152.235-.28.235l-.03-.003-.06-.011v-.131l.044.003c.055 0 .097-.011.127-.033s.056-.062.076-.121l.036-.096-.336-.932h.176l.235.707zm1.327-.706v.943h-.162v-.81h-.321l-.019.353c-.01.162-.038.278-.082.348s-.113.106-.208.109h-.064v-.142l.046-.004c.052-.006.09-.036.112-.091s.037-.156.044-.303l.017-.404h.637zm.488.325h.245c.107.001.192.029.254.084s.093.129.093.222c0 .094-.032.17-.096.227s-.15.085-.258.085h-.399v-.943h.161v.325zm0 .131v.355h.24c.06 0 .107-.015.14-.046s.05-.074.05-.128c0-.052-.016-.095-.049-.128s-.077-.051-.135-.052h-.246zm1.486-.326h-.316v.812h-.161v-.812h-.31v-.131h.788v.131zm.779.813a.36.36 0 01-.023-.099.359.359 0 01-.268.117c-.093 0-.169-.026-.229-.079s-.089-.12-.089-.2c0-.098.037-.174.112-.228s.18-.082.315-.082h.157v-.074c0-.056-.017-.101-.051-.134s-.083-.051-.149-.051c-.058 0-.106.015-.145.044s-.058.064-.058.105h-.162c0-.047.017-.092.05-.136s.079-.079.136-.105a.456.456 0 01.189-.038c.109 0 .194.027.255.082s.094.129.096.224v.434c0 .087.011.155.033.207v.014h-.169zm-.267-.123c.051 0 .099-.013.144-.039s.078-.06.099-.102v-.194h-.126c-.197 0-.296.058-.296.173 0 .051.017.09.051.119s.077.043.13.043zm.723-.82h.162v.811h.434v-.811h.161v.811h.112l-.016.411h-.145v-.28h-.709v-.943zm1.708 0h.161v.943h-.161v-.688l-.435.688h-.161v-.943h.161v.688l.435-.688zm1.194 0v.943h-.162v-.367h-.243l-.222.367h-.174l.237-.391c-.06-.022-.107-.056-.139-.102s-.048-.101-.048-.162c0-.086.032-.155.097-.207s.151-.08.259-.08h.396zm-.59.289c0 .046.016.083.047.112s.073.042.125.043h.256v-.313h-.232c-.06 0-.107.015-.143.044s-.053.067-.053.114zm1.777.539c.058 0 .108-.017.151-.052s.067-.078.072-.131h.152c-.003.054-.022.105-.056.154s-.08.088-.138.117a.393.393 0 01-.181.044c-.128 0-.231-.043-.307-.128s-.113-.203-.113-.352v-.027c0-.092.017-.173.05-.245s.082-.127.145-.166a.41.41 0 01.224-.059c.106 0 .193.032.263.095s.108.146.112.247h-.152a.221.221 0 00-.223-.209c-.082 0-.146.03-.191.089s-.067.144-.067.255v.03c0 .109.022.192.067.251s.109.088.192.088zM.298 26.722v.811h.345v-.811h.161v.811h.344v-.811h.162v.943H.135v-.943h.162zm1.931 0h.161v.943h-.161v-.688l-.435.688h-.161v-.943h.161v.688l.435-.688zm1.27.482c0 .143-.033.259-.099.347s-.155.132-.267.132a.344.344 0 01-.27-.109v.454h-.161v-1.305h.147l.008.105a.334.334 0 01.274-.122c.113 0 .203.043.268.128s.099.204.099.356v.015zm-.161-.018c0-.106-.023-.19-.068-.252s-.107-.092-.187-.092a.237.237 0 00-.22.13v.451a.237.237 0 00.221.129c.077 0 .139-.03.184-.091s.069-.153.069-.274zm.378-.001c0-.092.018-.175.054-.249a.402.402 0 01.374-.231c.128 0 .232.044.311.133s.119.207.119.355v.011c0 .092-.018.174-.053.247s-.085.129-.151.17a.412.412 0 01-.225.061c-.128 0-.232-.044-.311-.133s-.119-.207-.119-.353v-.011zm.162.019c0 .105.024.189.072.252s.114.095.195.095c.082 0 .147-.032.195-.096s.072-.155.072-.27c0-.103-.025-.187-.074-.251s-.114-.097-.195-.097c-.08 0-.144.032-.193.095s-.073.154-.073.272zm1.245.06h-.118v.402h-.162v-.943h.162v.399h.105l.317-.399h.195l-.373.453.404.49h-.205l-.327-.402zm1.334-.542h.161v.943h-.161v-.688l-.435.688h-.161v-.943h.161v.688l.435-.688zm1.017.73l.321-.729h.201v.943h-.161v-.686l-.305.686h-.112l-.311-.701v.701h-.161v-.943h.209l.319.729zm1.914.213a.36.36 0 01-.023-.099.359.359 0 01-.268.117c-.093 0-.169-.026-.229-.079s-.089-.12-.089-.2c0-.098.037-.174.112-.228s.18-.082.316-.082h.157v-.074c0-.056-.017-.101-.051-.134s-.083-.051-.149-.051c-.058 0-.106.015-.145.044s-.058.064-.058.105h-.162c0-.047.017-.092.05-.136s.079-.079.136-.105a.453.453 0 01.189-.038c.109 0 .194.027.255.082s.094.129.096.224v.434c0 .087.011.155.033.207v.014h-.169zm-.268-.123c.051 0 .098-.013.144-.039s.078-.06.098-.102v-.194h-.126c-.198 0-.296.058-.296.173 0 .051.017.09.051.119s.077.043.13.043zm1.003-.278h-.118v.402h-.162v-.943h.162v.399h.105l.317-.399h.195l-.373.453.404.49h-.205l-.327-.402zm1.425-.411h-.316v.812h-.161v-.812h-.31v-.131h.788v.131zm.82-.131h.161v.943h-.161v-.688l-.435.688h-.161v-.943h.161v.688l.435-.688zm.489.943v-.943h.368c.126 0 .222.022.288.066s.101.108.101.193c0 .044-.013.083-.039.118s-.065.062-.116.08c.057.013.103.04.137.079s.052.085.052.139c0 .087-.032.153-.096.199s-.153.069-.269.069h-.426zm.161-.414v.284h.267c.067 0 .118-.012.151-.037s.05-.06.05-.106c0-.094-.069-.141-.207-.141h-.261zm0-.129h.208c.151 0 .227-.044.227-.132s-.071-.134-.214-.137h-.221v.269zm.855.063c0-.092.018-.175.054-.249a.402.402 0 01.374-.231c.128 0 .232.044.311.133s.119.207.119.355v.011c0 .092-.018.174-.053.247s-.085.129-.151.17a.412.412 0 01-.225.061c-.128 0-.232-.044-.311-.133s-.118-.207-.118-.353v-.011zm.162.019c0 .105.024.189.072.252s.114.095.195.095c.082 0 .147-.032.195-.096s.072-.155.072-.27c0-.103-.025-.187-.074-.251s-.114-.097-.195-.097c-.08 0-.144.032-.193.095s-.073.154-.073.272zm1.495.248l.321-.729h.201v.943h-.161v-.686l-.305.686h-.112l-.311-.701v.701h-.161v-.943h.209l.319.729zm1.346.213v-.943h.368c.126 0 .222.022.288.066s.101.108.101.193c0 .044-.013.083-.039.118s-.065.062-.116.08c.057.013.102.04.137.079s.052.085.052.139c0 .087-.032.153-.096.199s-.153.069-.269.069h-.426zm.161-.414v.284h.267c.067 0 .118-.012.151-.037s.051-.06.051-.106c0-.094-.069-.141-.207-.141h-.261zm0-.129h.208c.151 0 .227-.044.227-.132s-.071-.134-.214-.137h-.221v.269zm1.912-.142c0-.044-.017-.079-.05-.105s-.08-.039-.139-.039c-.057 0-.105.015-.143.044s-.057.064-.057.105h-.16c0-.082.034-.149.103-.201s.154-.078.257-.078c.11 0 .196.024.258.071s.092.114.092.202c0 .042-.013.081-.038.117s-.062.064-.109.085c.11.037.165.11.165.22 0 .087-.033.155-.1.206s-.156.076-.267.076c-.109 0-.198-.026-.269-.079s-.106-.126-.106-.216h.16c0 .046.02.085.061.119s.092.049.153.049c.062 0 .111-.014.149-.043s.057-.065.057-.111c0-.053-.016-.091-.048-.113s-.08-.035-.147-.035h-.161v-.136h.175c.11-.003.165-.048.165-.136zm1.212.685H20v-.403h-.433v.403h-.162v-.943h.162v.409H20v-.409h.161v.943zm.895 0a.36.36 0 01-.023-.099.359.359 0 01-.268.117c-.093 0-.169-.026-.229-.079s-.089-.12-.089-.2c0-.098.037-.174.112-.228s.18-.082.316-.082h.157v-.074c0-.056-.017-.101-.05-.134s-.083-.051-.149-.051c-.058 0-.106.015-.145.044s-.058.064-.058.105h-.162c0-.047.017-.092.05-.136s.079-.079.136-.105a.453.453 0 01.189-.038c.109 0 .194.027.255.082s.094.129.096.224v.434c0 .087.011.155.033.207v.014h-.169zm-.267-.123c.051 0 .099-.013.144-.039s.078-.06.098-.102v-.194h-.126c-.197 0-.296.058-.296.173 0 .051.017.09.051.119s.077.043.13.043zm1.422.123h-.162v-.342a.841.841 0 01-.218.028c-.118 0-.208-.03-.27-.091s-.093-.146-.094-.258v-.282h.161v.287c.003.141.071.211.203.211a.841.841 0 00.218-.028v-.469h.162v.943zm.922-.943h.161v.943h-.161v-.688l-.435.688h-.161v-.943h.161v.688l.435-.688zm1.175.131h-.316v.812h-.161v-.812h-.31v-.131h.788v.131zm.532.83c-.128 0-.232-.042-.312-.126s-.12-.197-.12-.337v-.03c0-.093.018-.177.053-.25s.086-.131.15-.172a.374.374 0 01.209-.063c.123 0 .218.04.286.121s.102.196.102.347v.067h-.639c.002.093.029.168.081.226s.118.085.199.085c.057 0 .105-.012.145-.035s.074-.054.104-.092l.099.077a.398.398 0 01-.356.182zm-.02-.846c-.065 0-.12.024-.164.071s-.072.113-.082.199h.472v-.012c-.005-.082-.027-.145-.066-.19s-.093-.068-.16-.068zm1.401-.115v.943h-.162v-.81h-.321l-.019.353c-.01.162-.038.278-.082.348s-.113.106-.208.109h-.064v-.142l.046-.004c.052-.006.09-.036.112-.091s.037-.156.044-.303l.017-.404h.637zm.489.325h.245c.107.001.192.029.254.084s.093.129.093.222c0 .094-.032.17-.096.227s-.15.085-.258.085h-.399v-.943h.161v.325zm0 .132v.355h.24c.06 0 .107-.015.14-.046s.05-.074.05-.128c0-.052-.016-.095-.049-.128s-.077-.051-.135-.052h-.246zm1.617.486h-.161v-.403h-.433v.403h-.162v-.943h.162v.409h.433v-.409h.161v.943zm.27-.48c0-.092.018-.175.054-.249a.402.402 0 01.374-.231c.128 0 .232.044.311.133s.119.207.119.355v.011c0 .092-.018.174-.053.247s-.085.129-.151.17a.412.412 0 01-.225.061c-.128 0-.232-.044-.311-.133s-.118-.207-.118-.353v-.011zm.162.019c0 .105.024.189.072.252s.114.095.195.095c.082 0 .147-.032.195-.096s.072-.155.072-.27c0-.103-.025-.187-.074-.251s-.114-.097-.195-.097c-.08 0-.144.032-.192.095s-.073.154-.073.272zm1.562-.482h.161v.943h-.161v-.688l-.435.688h-.161v-.943h.161v.688l.435-.688zm.044-.343c0 .07-.024.127-.072.17s-.11.064-.188.064-.141-.021-.189-.064a.216.216 0 01-.072-.169h.132c0 .041.011.073.033.096s.054.034.097.034c.041 0 .072-.011.095-.034s.035-.055.035-.096h.131zM.5 30.611c.058 0 .108-.017.151-.052s.067-.078.071-.131h.152c-.003.054-.021.105-.056.154s-.08.088-.138.117a.393.393 0 01-.181.044c-.128 0-.231-.043-.307-.128s-.113-.203-.113-.352v-.027c0-.092.017-.173.051-.245s.082-.127.145-.166a.41.41 0 01.224-.059c.106 0 .193.032.263.095s.108.146.112.247H.722a.221.221 0 00-.223-.209c-.082 0-.146.03-.191.089s-.067.144-.067.255v.03c0 .109.022.192.067.251s.109.088.192.088zm1.311-.698h-.316v.812h-.161v-.812h-.31v-.131h.788v.131zm.532.83c-.128 0-.232-.042-.312-.126s-.12-.197-.12-.337v-.03c0-.093.018-.177.053-.25s.086-.131.15-.172a.374.374 0 01.209-.063c.123 0 .218.04.286.121s.102.196.102.347v.067h-.639c.002.093.029.168.081.226s.119.085.199.085c.057 0 .105-.012.145-.035s.074-.054.104-.092l.098.077a.398.398 0 01-.356.182zm-.021-.846c-.065 0-.12.024-.164.071s-.071.113-.082.199h.472v-.012c-.005-.082-.027-.145-.066-.19s-.093-.068-.16-.068zm1.401.828h-.161v-.81h-.434v.81h-.162v-.943h.757v.943zm.703.018c-.128 0-.232-.042-.312-.126s-.12-.197-.12-.337v-.03c0-.093.018-.177.053-.25s.086-.131.15-.172a.374.374 0 01.209-.063c.123 0 .218.04.286.121s.102.196.102.347v.067h-.639c.002.093.029.168.081.226s.119.085.199.085c.057 0 .105-.012.145-.035s.074-.054.104-.092l.098.077a.398.398 0 01-.356.182zm-.02-.846c-.065 0-.12.024-.164.071s-.071.113-.082.199h.472v-.012c-.005-.082-.027-.145-.066-.19s-.093-.068-.16-.068zm1.399.828h-.161v-.403h-.433v.403h-.162v-.943h.162v.409h.433v-.409h.161v.943zm.924-.943h.161v.943h-.161v-.688l-.435.688h-.161v-.943h.161v.688l.435-.688zm.927.463c0-.092.018-.175.054-.249a.402.402 0 01.374-.231c.128 0 .232.044.311.133s.119.207.119.355v.011c0 .092-.018.174-.053.247s-.085.129-.151.17a.412.412 0 01-.225.061c-.128 0-.232-.044-.311-.133s-.119-.207-.119-.353v-.011zm.162.019c0 .105.024.189.072.252s.114.095.195.095c.082 0 .147-.032.195-.096s.072-.155.072-.27c0-.103-.025-.187-.074-.251s-.114-.097-.195-.097c-.08 0-.144.032-.193.095s-.073.154-.073.272zm1.366-.428c.119 0 .213.04.284.119s.107.183.107.313v.015c0 .089-.017.169-.051.239s-.084.124-.148.163a.426.426 0 01-.221.058c-.127 0-.229-.042-.306-.126s-.116-.198-.116-.341v-.079c0-.198.037-.356.11-.472s.182-.188.326-.213c.081-.015.136-.032.165-.053s.043-.05.043-.086h.132c0 .073-.017.129-.05.17s-.085.069-.157.086l-.12.027c-.096.023-.168.061-.216.115s-.079.125-.093.214a.396.396 0 01.312-.148zm-.031.133c-.079 0-.142.027-.188.08s-.07.126-.07.221v.014c0 .101.023.181.07.241s.11.088.19.088.143-.03.19-.089.07-.146.07-.26c0-.089-.024-.16-.071-.214s-.11-.081-.191-.081zm.966.52l.22-.707h.173l-.379 1.088c-.059.157-.152.235-.28.235l-.03-.003-.06-.011v-.131l.044.003c.055 0 .097-.011.127-.033s.056-.062.076-.121l.036-.096-.336-.932h.176l.235.707zm.956.122c.058 0 .108-.017.151-.052s.067-.078.071-.131h.153c-.003.054-.021.105-.056.154s-.08.088-.138.117a.393.393 0 01-.181.044c-.128 0-.231-.043-.307-.128s-.113-.203-.113-.352v-.027c0-.092.017-.173.051-.245s.082-.127.145-.166a.41.41 0 01.224-.059c.106 0 .193.032.263.095s.108.146.112.247h-.153a.221.221 0 00-.223-.209c-.082 0-.146.03-.191.089s-.067.144-.067.255v.03c0 .109.022.192.067.251s.109.088.192.088zm1.383-.829v.943h-.162v-.81h-.321l-.019.353c-.01.162-.038.278-.082.348s-.113.106-.208.109h-.065v-.142l.046-.004c.052-.006.09-.036.112-.091s.037-.156.044-.303l.017-.404h.637zm.894.943a.36.36 0 01-.023-.099.359.359 0 01-.268.117c-.093 0-.169-.026-.229-.079s-.089-.12-.089-.2c0-.098.037-.174.112-.228s.18-.082.316-.082h.157v-.074c0-.056-.017-.101-.05-.134s-.083-.051-.149-.051c-.057 0-.106.015-.145.044s-.058.064-.058.105h-.162c0-.047.016-.092.05-.136s.079-.079.136-.105a.45.45 0 01.189-.038c.109 0 .194.027.255.082s.094.129.096.224v.434c0 .087.011.155.033.207v.014h-.169zm-.267-.123c.05 0 .098-.013.144-.039s.078-.06.098-.102v-.194h-.126c-.197 0-.296.058-.296.173 0 .051.017.09.05.119s.077.043.13.043zm.724.123v-.943h.368c.126 0 .222.022.289.066s.101.108.101.193c0 .044-.013.083-.039.118s-.065.062-.116.08c.057.013.103.04.137.079s.052.085.052.139c0 .087-.032.153-.096.199s-.153.069-.269.069h-.426zm.161-.414v.284h.267c.067 0 .118-.012.151-.037s.05-.06.05-.106c0-.094-.069-.141-.207-.141h-.261zm0-.129h.208c.151 0 .227-.044.227-.132s-.071-.134-.214-.137h-.221v.269zm1.671-.4v.943h-.162v-.81h-.321l-.019.353c-.01.162-.038.278-.082.348s-.113.106-.208.109h-.065v-.142l.046-.004c.052-.006.09-.036.112-.091s.037-.156.044-.303l.017-.404h.637zm.922 0h.161v.943h-.161v-.688l-.435.688h-.161v-.943h.161v.688l.435-.688zm.489.943v-.943h.368c.126 0 .222.022.288.066s.101.108.101.193c0 .044-.013.083-.039.118s-.065.062-.116.08c.057.013.102.04.137.079s.052.085.052.139c0 .087-.032.153-.096.199s-.153.069-.269.069h-.426zm.161-.414v.284h.267c.067 0 .118-.012.151-.037s.051-.06.051-.106c0-.094-.069-.141-.207-.141h-.261zm0-.129h.208c.151 0 .227-.044.227-.132s-.071-.134-.214-.137h-.221v.269zm1.479.543a.36.36 0 01-.023-.099.359.359 0 01-.268.117c-.093 0-.169-.026-.229-.079s-.089-.12-.089-.2c0-.098.037-.174.112-.228s.18-.082.316-.082h.157v-.074c0-.056-.017-.101-.05-.134s-.083-.051-.149-.051c-.058 0-.106.015-.145.044s-.058.064-.058.105h-.162c0-.047.017-.092.05-.136s.079-.079.136-.105a.453.453 0 01.189-.038c.109 0 .194.027.255.082s.094.129.096.224v.434c0 .087.011.155.033.207v.014h-.169zm-.267-.123c.05 0 .098-.013.144-.039s.078-.06.098-.102v-.194h-.126c-.197 0-.296.058-.296.173 0 .051.017.09.05.119s.077.043.13.043zm1.101.141c-.128 0-.232-.042-.312-.126s-.12-.197-.12-.337v-.03c0-.093.018-.177.053-.25s.086-.131.15-.172a.374.374 0 01.209-.063c.123 0 .218.04.286.121s.102.196.102.347v.067h-.639c.002.093.029.168.081.226s.118.085.199.085c.057 0 .105-.012.145-.035s.074-.054.104-.092l.099.077a.398.398 0 01-.356.182zm-.02-.846c-.065 0-.12.024-.164.071s-.071.113-.082.199h.472v-.012c-.005-.082-.027-.145-.066-.19s-.093-.068-.16-.068zm1.319.016h-.316v.812h-.161v-.812h-.31v-.131h.788v.131zm.214.728c0-.028.008-.051.024-.07s.042-.028.075-.028c.033 0 .058.009.075.028s.026.042.026.07c0 .027-.009.049-.026.067s-.042.027-.075.027c-.033 0-.058-.009-.075-.027s-.024-.04-.024-.067z"/><path fill="var(--color6, #f5f4fa)" d="M.51 0h33.402a.51.51 0 01.51.51v14.279a.51.51 0 01-.51.51H.51a.51.51 0 01-.51-.51V.51A.51.51 0 01.51 0z"/><path fill="var(--color2, #2196f3)" d="M16.912 7.361h.297v1.338h-.297V7.361zM18.101 7.955h.297v.743h-.297v-.743zM15.722 8.401h.297v.297h-.297v-.297zM14.83 8.253h.297v.446h-.297v-.446z"/><path fill="var(--color1, #212121)" d="M13.195 11.077h7.136c.246 0 .446-.2.446-.446v-.595c0-.246-.2-.446-.446-.446h-.149V5.883l.844-.8a.447.447 0 00.519-.716.45.45 0 00-.727.503l-.636.603V5.13c0-.246-.2-.446-.446-.446h-5.947c-.246 0-.446.2-.446.446v4.46h-.149c-.246 0-.446.2-.446.446v.595c0 .246.2.446.446.446zm8.028-6.541a.15.15 0 010 .298.15.15 0 010-.298zm-7.582.595a.15.15 0 01.149-.149h5.947a.15.15 0 01.149.149v.624l-.297.282v-.61a.15.15 0 00-.149-.149h-5.352a.15.15 0 00-.149.149v3.716a.15.15 0 00.149.149h5.352a.15.15 0 00.149-.149V6.445l.297-.282v3.426h-6.244v-4.46zm1.338 1.932a.444.444 0 00-.229.829.446.446 0 00.538-.063l.517.259c.06.03.133.016.177-.034l1.098-1.236 1.08.809a.148.148 0 00.191-.011l.938-.889v2.268h-5.054V5.576h5.054v.742l-1.052.996-1.089-.816a.148.148 0 00-.2.02l-1.114 1.253-.416-.208a.495.495 0 00.006-.054c0-.246-.2-.446-.446-.446zm.149.446a.15.15 0 01-.298 0 .15.15 0 01.298 0zm.892 2.379h1.487v.149a.15.15 0 01-.149.149h-1.189a.15.15 0 01-.149-.149v-.149zm-2.974.149a.15.15 0 01.149-.149h2.527v.149c0 .246.2.446.446.446h1.189c.246 0 .446-.2.446-.446v-.149h2.527a.15.15 0 01.149.149v.595a.15.15 0 01-.149.149h-7.136a.15.15 0 01-.149-.149v-.595z"/></symbol><symbol id="icon-spaceman" viewBox="0 0 34 32"><path fill="var(--color1, #212121)" d="M1.109 20.358c-.01.137-.06.244-.152.322s-.21.118-.359.118c-.163 0-.291-.055-.384-.164s-.139-.26-.139-.451v-.078c0-.122.021-.229.065-.322s.104-.164.184-.214a.515.515 0 01.279-.075c.146 0 .264.039.354.118s.141.189.155.33H.851c-.006-.082-.029-.141-.069-.178s-.098-.056-.179-.056c-.087 0-.152.031-.196.094s-.065.159-.066.29v.096c0 .137.021.237.062.301s.108.095.197.095c.081 0 .141-.018.18-.055s.063-.094.069-.172h.261zm1.268-.183c0 .125-.022.234-.066.329s-.107.167-.19.218a.523.523 0 01-.282.077c-.105 0-.199-.025-.281-.076s-.146-.123-.192-.216a.756.756 0 01-.069-.324v-.063c0-.125.022-.235.067-.329s.109-.168.191-.219c.083-.051.177-.077.282-.077s.2.026.282.077c.083.05.146.123.191.219s.068.204.068.329v.057zm-.265-.057c0-.133-.024-.234-.071-.303s-.116-.104-.204-.104c-.088 0-.155.034-.203.103s-.072.168-.072.3v.062c0 .13.024.23.071.302s.116.107.206.107c.088 0 .155-.034.202-.103s.071-.17.071-.302v-.062zm.509.663v-1.269h.444c.154 0 .271.03.35.089s.119.145.119.259c0 .062-.016.117-.048.165s-.076.082-.133.104c.065.016.116.049.153.098s.057.11.057.181c0 .122-.039.214-.117.277s-.189.095-.333.096H2.62zm.261-.553v.343h.224c.062 0 .11-.015.144-.044s.052-.07.052-.122c0-.116-.06-.175-.18-.177h-.24zm0-.184h.193c.132-.002.198-.055.198-.158 0-.058-.017-.099-.051-.124s-.086-.038-.158-.038h-.183v.32zm1.193.29v.447h-.261v-1.269h.495c.095 0 .179.017.251.052a.39.39 0 01.225.368c0 .124-.043.222-.128.294s-.202.107-.353.107h-.229zm0-.212h.234c.069 0 .122-.016.158-.049s.055-.079.055-.139c0-.062-.018-.112-.055-.151s-.087-.058-.152-.059h-.24v.398zm1.708.109h-.502v.34h.589v.21h-.851v-1.269h.849v.212h-.587v.302h.502v.205zm.636-.719l.326.92.324-.92h.343v1.269H7.15v-.347l.026-.599-.343.946h-.18l-.342-.945.026.598v.347h-.261v-1.269h.342zm2.039.719h-.502v.34h.589v.21h-.851v-1.269h.849v.212h-.587v.302h.502v.205zm1.327.55h-.261v-.544h-.51v.544h-.261v-1.269h.261v.514h.51v-.514h.261v1.269zm1.315 0h-.261v-.544h-.51v.544h-.261v-1.269h.261v.514h.51v-.514h.261v1.269zm.549-.811h.204c.149 0 .268.036.355.109s.132.169.132.292c0 .123-.044.222-.131.297s-.202.112-.346.113h-.477v-1.269h.263v.458zm1.06.811h-.261v-1.269h.261v1.269zm-1.06-.601v.39h.208c.067 0 .12-.018.159-.055s.06-.086.06-.147c0-.058-.019-.103-.058-.136s-.09-.051-.156-.052h-.214zm2.107.051h-.502v.34h.589v.21h-.851v-1.269h.849v.212h-.587v.302h.502v.205zm1.695-.507h-.389v1.057h-.261v-1.057h-.383v-.212h1.034v.212zm.967.507h-.502v.34h.589v.21h-.851v-1.269h.849v.212h-.587v.302h.502v.205zm.748-.281l.238-.438h.301l-.369.629.379.64h-.304l-.244-.444-.244.444h-.304l.379-.64-.369-.629h.301l.238.438zm1.767.831h-.261v-.544h-.51v.544h-.261v-1.269h.261v.514h.51v-.514h.261v1.269zm1.325-.606c0 .125-.022.234-.066.329s-.107.167-.19.218a.523.523 0 01-.282.077.511.511 0 01-.474-.292.756.756 0 01-.069-.324v-.063c0-.125.022-.235.067-.329s.109-.168.191-.219c.082-.051.177-.077.282-.077s.2.026.282.077c.083.05.146.123.191.219s.068.204.068.329v.057zm-.264-.057c0-.133-.024-.234-.072-.303s-.116-.104-.204-.104c-.088 0-.155.034-.203.103s-.072.168-.072.3v.062c0 .13.024.23.072.302s.116.107.206.107c.088 0 .155-.034.202-.103s.071-.17.072-.302v-.062zm1.512-.606v1.269h-.262v-1.057h-.338l-.021.448c-.009.151-.028.27-.058.357s-.073.15-.13.191a.409.409 0 01-.234.061h-.068v-.21l.044-.004c.066-.009.112-.046.14-.113s.047-.187.054-.359l.022-.582h.851zm1.324.663c0 .125-.022.234-.066.329s-.107.167-.19.218a.523.523 0 01-.282.077.511.511 0 01-.474-.292.756.756 0 01-.069-.324v-.063c0-.125.022-.235.067-.329s.109-.168.191-.219c.082-.051.177-.077.282-.077s.2.026.282.077c.083.05.146.123.191.219s.068.204.068.329v.057zm-.265-.057c0-.133-.024-.234-.072-.303s-.116-.104-.204-.104c-.088 0-.155.034-.203.103s-.072.168-.072.3v.062c0 .13.024.23.072.302s.116.107.206.107c.088 0 .155-.034.202-.103s.071-.17.072-.302v-.062zm1.341-.394h-.569v1.057h-.261v-1.269h.83v.212zm.977-.212h.262v1.269h-.262v-.843l-.508.843h-.261v-1.269h.261v.845l.508-.845zm1.304 0h.262v1.269h-.262v-.843l-.508.843h-.261v-1.269h.261v.845l.508-.845z"/><path fill="var(--color5, #757575)" d="M.798 23.677c0-.067-.025-.121-.074-.16s-.118-.06-.207-.06c-.074 0-.137.021-.187.062s-.075.091-.075.152H.088c0-.067.018-.128.055-.181s.089-.095.155-.125a.524.524 0 01.22-.045c.142 0 .252.032.33.096s.118.152.118.265c0 .059-.018.112-.054.16s-.086.086-.151.114c.149.05.224.149.224.297 0 .114-.042.204-.127.271s-.198.1-.34.1c-.084 0-.161-.015-.23-.044s-.122-.073-.16-.128-.058-.121-.058-.197h.167c0 .067.026.123.079.167s.12.066.201.066c.091 0 .164-.021.218-.064s.082-.098.082-.168c0-.149-.092-.224-.276-.227H.384v-.138H.54c.085-.002.149-.021.193-.058s.065-.088.065-.155zm1.208.929h-.161v-.403h-.433v.403H1.25v-.943h.162v.409h.433v-.409h.161v.943zm.895 0a.36.36 0 01-.023-.099.359.359 0 01-.268.117c-.093 0-.169-.026-.229-.079s-.089-.12-.089-.2c0-.098.037-.174.112-.228s.18-.082.316-.082h.157v-.074c0-.056-.017-.101-.051-.134s-.083-.051-.149-.051c-.058 0-.106.015-.145.044s-.058.064-.058.105h-.162c0-.047.017-.092.05-.136s.079-.079.136-.105a.456.456 0 01.189-.038c.109 0 .194.027.255.082s.094.129.096.224v.434c0 .087.011.155.033.207v.014h-.169zm-.267-.123c.051 0 .098-.013.144-.039s.078-.06.099-.102v-.194h-.126c-.198 0-.296.058-.296.173 0 .051.017.09.051.119s.077.043.13.043zm1.421.123h-.162v-.342a.836.836 0 01-.218.028c-.118 0-.208-.03-.27-.091s-.093-.146-.094-.258v-.282h.161v.287c.003.141.071.211.203.211a.841.841 0 00.218-.028v-.469h.162v.943zm.923-.943h.161v.943h-.161v-.688l-.435.688h-.161v-.943h.161v.688l.435-.688zm1.016.729l.321-.729h.201v.943h-.161v-.686l-.305.686h-.112l-.311-.701v.701h-.161v-.943h.209l.319.729zm.793-.267c0-.092.018-.175.054-.249a.402.402 0 01.374-.231c.128 0 .232.044.311.133s.119.207.119.355v.011c0 .092-.018.174-.053.247s-.085.129-.151.17a.412.412 0 01-.225.061c-.128 0-.232-.044-.311-.133s-.119-.207-.119-.353v-.011zm.162.02c0 .105.024.189.072.252s.114.095.195.095c.082 0 .147-.032.195-.096s.072-.155.072-.27c0-.103-.025-.187-.074-.251s-.114-.097-.195-.097c-.08 0-.144.032-.193.095s-.073.154-.073.272zm1.33.346c.057 0 .108-.017.151-.052s.067-.078.071-.131h.153c-.003.054-.021.105-.056.154s-.08.088-.138.117a.393.393 0 01-.181.044c-.128 0-.231-.043-.307-.128s-.113-.203-.113-.352v-.027c0-.092.017-.173.051-.245s.082-.127.145-.166a.41.41 0 01.224-.059c.106 0 .193.032.263.095s.108.146.112.247h-.153a.221.221 0 00-.223-.209c-.082 0-.146.03-.191.089s-.067.144-.067.255v.03c0 .109.022.192.067.251s.109.088.192.088zm1.311-.698h-.316v.812h-.161v-.812h-.31v-.131h.788v.131zm.386.195h.245c.107.001.191.029.254.084s.093.129.093.222c0 .094-.032.17-.096.227s-.15.085-.258.085h-.399v-.943h.161v.325zm0 .131v.355h.24c.06 0 .107-.015.14-.046s.05-.074.05-.128c0-.052-.016-.095-.049-.128s-.077-.051-.135-.052h-.246zm1.674-.341c-.058 0-.107.018-.15.055s-.063.08-.063.13h-.153c0-.054.017-.106.051-.155s.08-.089.137-.118a.375.375 0 01.178-.044c.123 0 .222.044.297.133s.114.204.114.347v.027c0 .088-.017.169-.052.242s-.083.129-.146.169a.385.385 0 01-.214.059c-.105 0-.192-.032-.261-.098s-.105-.146-.105-.243h.153c0 .059.021.109.062.15s.091.06.151.06c.069 0 .126-.027.171-.08s.071-.127.078-.22h-.354v-.132h.352c-.008-.085-.034-.153-.078-.204s-.1-.078-.169-.078zm1.314.015h-.316v.812h-.161v-.812h-.31v-.131h.788v.131zm.82-.13h.161v.943h-.161v-.688l-.435.688h-.161v-.943h.161v.688l.435-.688zm.79.344l.209-.344h.188l-.309.466.318.477h-.187l-.218-.353-.218.353h-.187l.318-.477-.309-.466h.187l.207.344zm1.891.599h-.161v-.81h-.434v.81h-.162v-.943h.757v.943zm1.109-.461c0 .143-.033.259-.098.347s-.155.132-.267.132a.345.345 0 01-.27-.109v.454h-.161v-1.305h.147l.008.105a.334.334 0 01.274-.122c.113 0 .203.043.268.128s.099.204.099.356v.015zm-.162-.019c0-.106-.023-.19-.068-.252s-.107-.092-.187-.092a.237.237 0 00-.22.13v.451a.237.237 0 00.221.129c.077 0 .139-.03.184-.091s.069-.153.069-.274zm.378-.001c0-.092.018-.175.054-.249a.402.402 0 01.374-.231c.128 0 .232.044.311.133s.119.207.119.355v.011c0 .092-.018.174-.053.247s-.085.129-.151.17a.412.412 0 01-.225.061c-.128 0-.232-.044-.311-.133s-.119-.207-.119-.353v-.011zm.162.02c0 .105.024.189.072.252s.114.095.195.095c.082 0 .147-.032.195-.096s.072-.155.072-.27c0-.103-.025-.187-.074-.251s-.114-.097-.195-.097c-.08 0-.144.032-.193.095s-.073.154-.073.272zm1.366-.428c.119 0 .213.04.284.119s.107.183.107.313v.015c0 .089-.017.169-.051.239s-.084.124-.148.163a.426.426 0 01-.221.058c-.127 0-.229-.042-.306-.126s-.116-.198-.116-.341v-.079c0-.198.037-.356.11-.472s.182-.188.326-.213c.081-.015.136-.032.165-.053s.043-.05.043-.086h.132c0 .073-.017.129-.05.17s-.085.069-.157.086l-.12.027c-.096.023-.168.061-.216.115s-.079.125-.093.214a.396.396 0 01.312-.148zm-.031.132c-.079 0-.142.027-.188.08s-.07.126-.07.221v.014c0 .101.023.181.07.241s.11.088.19.088.144-.03.19-.089.07-.146.07-.26c0-.089-.024-.16-.071-.214s-.11-.081-.191-.081zm1.431-.186v.943h-.162v-.81h-.321l-.019.353c-.01.162-.038.278-.082.348s-.113.106-.208.109h-.064v-.142l.046-.004c.052-.006.09-.036.112-.091s.037-.156.044-.303l.017-.404h.637zm.703.96c-.128 0-.232-.042-.312-.126s-.12-.197-.12-.337v-.03c0-.093.018-.177.053-.25s.086-.131.15-.172a.374.374 0 01.209-.063c.123 0 .218.04.286.121s.102.196.102.347v.067h-.639c.002.093.029.168.081.226s.119.085.199.085c.057 0 .105-.012.145-.035s.074-.054.104-.092l.098.077a.396.396 0 01-.356.182zm-.02-.845c-.065 0-.12.024-.164.071s-.072.113-.082.199h.472v-.012c-.005-.082-.027-.145-.066-.19s-.093-.068-.16-.068zm1.172.614l.321-.729h.201v.943h-.161v-.686l-.305.686h-.112l-.311-.701v.701h-.161v-.943h.209l.319.729zm2.102.214h-.161v-.403h-.433v.403h-.162v-.943h.162v.409h.433v-.409h.161v.943zm.895 0a.36.36 0 01-.023-.099.359.359 0 01-.268.117c-.093 0-.169-.026-.229-.079s-.089-.12-.089-.2c0-.098.037-.174.112-.228s.18-.082.316-.082h.157v-.074c0-.056-.017-.101-.05-.134s-.083-.051-.149-.051c-.058 0-.106.015-.145.044s-.058.064-.058.105h-.162c0-.047.017-.092.05-.136s.079-.079.136-.105a.453.453 0 01.189-.038c.109 0 .194.027.255.082s.094.129.096.224v.434c0 .087.011.155.033.207v.014h-.169zm-.267-.123c.05 0 .098-.013.144-.039s.078-.06.098-.102v-.194h-.126c-.198 0-.296.058-.296.173 0 .051.017.09.05.119s.077.043.13.043zm1.088.008c.058 0 .108-.017.151-.052s.067-.078.071-.131h.152c-.003.054-.021.105-.056.154s-.08.088-.138.117a.393.393 0 01-.181.044c-.128 0-.231-.043-.307-.128s-.113-.203-.113-.352v-.027c0-.092.017-.173.051-.245s.082-.127.145-.166a.41.41 0 01.224-.059c.106 0 .194.032.263.095s.108.146.112.247h-.152a.221.221 0 00-.223-.209c-.082 0-.145.03-.191.089s-.067.144-.067.255v.03c0 .109.022.192.067.251s.109.088.192.088zm1.31-.698h-.316v.812h-.161v-.812h-.31v-.131h.788v.131zm.131.332c0-.092.018-.175.054-.249a.402.402 0 01.374-.231c.128 0 .232.044.311.133s.119.207.119.355v.011c0 .092-.018.174-.053.247s-.085.129-.151.17a.412.412 0 01-.225.061c-.128 0-.232-.044-.311-.133s-.119-.207-.119-.353v-.011zm.162.02c0 .105.024.189.072.252s.114.095.195.095c.082 0 .147-.032.195-.096s.072-.155.072-.27c0-.103-.025-.187-.074-.251s-.114-.097-.195-.097c-.08 0-.144.032-.192.095s-.073.154-.073.272zm1.711-.482v.943h-.162v-.81h-.321l-.019.353c-.01.162-.038.278-.082.348s-.113.106-.208.109h-.064v-.142l.046-.004c.052-.006.09-.036.112-.091s.037-.156.043-.303l.017-.404h.637zm.489.325h.245c.107.001.192.029.254.084s.093.129.093.222c0 .094-.032.17-.096.227s-.15.085-.258.085h-.399v-.943h.161v.325zm0 .131v.355h.24c.06 0 .107-.015.14-.046s.05-.074.05-.128c0-.052-.016-.095-.049-.128s-.077-.051-.135-.052h-.246zm1.14.085h-.118v.402h-.162v-.943h.162v.399h.105l.317-.399h.195l-.373.453.404.49h-.205l-.327-.402zm.662-.079c0-.092.018-.175.054-.249a.402.402 0 01.374-.231c.128 0 .232.044.311.133s.119.207.119.355v.011c0 .092-.018.174-.053.247s-.085.129-.151.17a.412.412 0 01-.225.061c-.128 0-.232-.044-.311-.133s-.119-.207-.119-.353v-.011zm.162.02c0 .105.024.189.072.252s.114.095.195.095c.082 0 .147-.032.195-.096s.072-.155.072-.27c0-.103-.025-.187-.074-.251s-.114-.097-.195-.097c-.08 0-.144.032-.193.095s-.073.154-.073.272zM.079 27.185c0-.092.018-.175.054-.249a.402.402 0 01.374-.231c.128 0 .232.044.311.133s.119.207.119.355v.011c0 .092-.018.174-.053.247s-.085.129-.151.17a.412.412 0 01-.225.061c-.128 0-.232-.044-.311-.133s-.119-.207-.119-.353v-.011zm.162.019c0 .105.024.189.072.252s.114.095.195.095c.082 0 .147-.032.195-.096s.072-.155.072-.27c0-.103-.025-.187-.074-.251s-.114-.097-.195-.097c-.08 0-.144.032-.193.095s-.073.154-.073.272zm1.665.461h-.162v-.342a.836.836 0 01-.218.028c-.118 0-.208-.03-.27-.091s-.093-.146-.094-.258v-.282h.161v.287c.003.141.071.211.203.211a.841.841 0 00.218-.028v-.469h.162v.943zm.703.018c-.128 0-.232-.042-.312-.126s-.12-.197-.12-.337v-.03c0-.093.018-.177.053-.25s.086-.131.15-.172a.374.374 0 01.209-.063c.123 0 .218.04.286.121s.102.196.102.347v.067h-.639c.002.093.029.168.081.226s.119.085.199.085c.057 0 .105-.012.145-.035s.074-.054.104-.092l.098.077a.398.398 0 01-.356.182zm-.02-.846c-.065 0-.12.024-.164.071s-.071.113-.082.199h.472v-.012c-.005-.082-.027-.145-.066-.19s-.093-.068-.16-.068zm.644.828v-.943h.368c.126 0 .222.022.288.066s.101.108.101.193c0 .044-.013.083-.039.118s-.065.062-.116.08c.057.013.103.04.137.079s.052.085.052.139c0 .087-.032.153-.096.199s-.153.069-.269.069h-.426zm.161-.414v.284h.267c.067 0 .118-.012.151-.037s.051-.06.051-.106c0-.094-.069-.141-.207-.141h-.261zm0-.129h.208c.151 0 .227-.044.227-.132s-.071-.134-.214-.137h-.22v.269zm1.507-.4h.161v.943h-.161v-.688l-.435.688h-.161v-.943h.161v.688l.435-.688zm.466.812l.056-.069c.063-.081.098-.203.107-.366l.015-.376h.607v.811h.121v.409h-.161v-.277h-.658v.277h-.161l.001-.409h.073zm.191 0h.433v-.662h-.29l-.01.225c-.01.188-.054.334-.133.438zm1.718.131h-.161v-.403h-.433v.403H6.52v-.943h.162v.409h.433v-.409h.161v.943zm.895 0a.36.36 0 01-.023-.099.359.359 0 01-.268.117c-.093 0-.169-.026-.229-.079s-.089-.12-.089-.2c0-.098.037-.174.112-.228s.18-.082.316-.082h.157v-.074c0-.056-.017-.101-.051-.134s-.083-.051-.149-.051c-.058 0-.106.015-.145.044s-.058.064-.058.105h-.162c0-.047.017-.092.05-.136s.079-.079.136-.105a.456.456 0 01.189-.038c.109 0 .194.027.255.082s.094.129.096.224v.434c0 .087.011.155.033.207v.014h-.169zm-.267-.123c.051 0 .098-.013.144-.039s.078-.06.098-.102v-.194H8.02c-.198 0-.296.058-.296.173 0 .051.017.09.051.119s.077.043.13.043zm.704.376l-.091-.063a.415.415 0 00.085-.235v-.146h.158v.126c0 .059-.015.117-.044.176s-.065.106-.108.141zm1.618-.253h-.162v-.342a.836.836 0 01-.218.028c-.118 0-.208-.03-.27-.091s-.093-.146-.094-.258v-.282h.161v.287c.003.141.071.211.203.211a.841.841 0 00.218-.028v-.469h.162v.943zm1.013-.812h-.316v.812h-.161v-.812h-.31v-.131h.788v.131zm.131.332c0-.092.018-.175.054-.249a.402.402 0 01.374-.231c.128 0 .232.044.311.133s.119.207.119.355v.011c0 .092-.018.174-.053.247s-.085.129-.151.17a.412.412 0 01-.225.061c-.128 0-.232-.044-.311-.133s-.118-.207-.118-.353v-.011zm.162.019c0 .105.024.189.072.252s.114.095.195.095c.082 0 .147-.032.195-.096s.072-.155.072-.27c0-.103-.025-.187-.074-.251s-.114-.097-.195-.097c-.08 0-.144.032-.193.095s-.073.154-.073.272zm2.245 0c0 .143-.033.259-.099.347s-.155.132-.267.132a.345.345 0 01-.27-.109v.454h-.161v-1.305h.147l.008.105a.334.334 0 01.274-.122c.113 0 .203.043.268.128s.099.204.099.356v.015zm-.161-.018c0-.106-.023-.19-.068-.252s-.107-.092-.187-.092a.237.237 0 00-.22.13v.451a.237.237 0 00.221.129c.077 0 .138-.03.184-.091s.069-.153.069-.274zm.812.497c-.128 0-.232-.042-.312-.126s-.12-.197-.12-.337v-.03c0-.093.018-.177.053-.25s.086-.131.15-.172a.377.377 0 01.209-.063c.123 0 .218.04.286.121s.102.196.102.347v.067h-.639c.002.093.029.168.081.226s.119.085.199.085c.057 0 .105-.012.145-.035s.074-.054.104-.092l.098.077a.396.396 0 01-.356.182zm-.02-.846c-.065 0-.12.024-.164.071s-.072.113-.082.199h.472v-.012c-.005-.082-.027-.145-.066-.19s-.093-.068-.16-.068zm1.21.828a.36.36 0 01-.023-.099.359.359 0 01-.268.117c-.093 0-.169-.026-.229-.079s-.089-.12-.089-.2c0-.098.037-.174.112-.228s.18-.082.315-.082h.157v-.074c0-.056-.017-.101-.051-.134s-.083-.051-.149-.051c-.057 0-.106.015-.145.044s-.058.064-.058.105h-.162c0-.047.017-.092.05-.136s.079-.079.136-.105a.453.453 0 01.189-.038c.109 0 .194.027.255.082s.093.129.096.224v.434c0 .087.011.155.033.207v.014h-.169zm-.267-.123c.051 0 .099-.013.144-.039s.078-.06.099-.102v-.194h-.126c-.198 0-.296.058-.296.173 0 .051.017.09.051.119s.077.043.13.043zm1.483-.82v.943h-.162v-.81h-.321l-.019.353c-.01.162-.038.278-.082.348s-.113.106-.208.109h-.065v-.142l.046-.004c.052-.006.09-.036.112-.091s.037-.156.044-.303l.017-.404h.637zm.922 0h.161v.943h-.161v-.688l-.435.688h-.161v-.943h.161v.688l.435-.688zm.992.258c0-.044-.017-.079-.05-.105s-.08-.039-.139-.039c-.057 0-.105.015-.143.044s-.057.064-.057.105h-.16c0-.082.034-.149.103-.201s.154-.078.257-.078c.11 0 .196.024.258.071s.092.114.092.202c0 .042-.013.081-.038.117s-.062.064-.109.085c.11.037.165.11.165.22 0 .087-.034.155-.1.206s-.156.076-.267.076c-.109 0-.198-.026-.269-.079s-.105-.126-.105-.216h.16c0 .046.02.085.061.119s.092.049.153.049c.062 0 .111-.014.149-.043s.057-.065.057-.111c0-.053-.016-.091-.048-.113s-.08-.035-.147-.035h-.161v-.136h.175c.11-.003.165-.048.165-.136zm1.024.685a.36.36 0 01-.023-.099.359.359 0 01-.268.117c-.093 0-.169-.026-.229-.079s-.089-.12-.089-.2c0-.098.037-.174.112-.228s.18-.082.316-.082h.157v-.074c0-.056-.017-.101-.05-.134s-.083-.051-.149-.051c-.058 0-.106.015-.145.044s-.058.064-.058.105h-.162c0-.047.016-.092.05-.136s.079-.079.136-.105a.453.453 0 01.189-.038c.109 0 .194.027.255.082s.094.129.096.224v.434c0 .087.011.155.033.207v.014h-.169zm-.268-.123c.05 0 .098-.013.144-.039s.078-.06.098-.102v-.194h-.126c-.197 0-.296.058-.296.173 0 .051.017.09.05.119s.077.043.13.043zm.724-.82h.162v.811h.434v-.811h.161v.811h.112l-.016.411h-.145v-.28h-.709v-.943zm1.708 0h.161v.943h-.161v-.688l-.435.688h-.161v-.943h.161v.688l.435-.688zm1.194 0v.943h-.162v-.367h-.243l-.222.367h-.174l.237-.391c-.06-.022-.107-.056-.139-.102s-.048-.101-.048-.162c0-.086.032-.155.097-.207s.151-.08.259-.08h.397zm-.59.29c0 .046.016.083.047.112s.073.042.125.043h.256v-.313h-.232c-.06 0-.107.015-.143.044s-.053.067-.053.114zm2.17.653h-.161v-.81h-.434v.81h-.162v-.943h.757v.943zm1.085-.943v.943h-.162v-.81h-.321l-.019.353c-.01.162-.038.278-.082.348s-.113.106-.208.109h-.064v-.142l.046-.004c.052-.006.09-.036.112-.091s.037-.156.044-.303l.017-.404h.637zm.895.943a.36.36 0 01-.023-.099.359.359 0 01-.268.117c-.093 0-.169-.026-.229-.079s-.089-.12-.089-.2c0-.098.037-.174.112-.228s.18-.082.316-.082h.157v-.074c0-.056-.017-.101-.051-.134s-.083-.051-.149-.051c-.058 0-.106.015-.145.044s-.058.064-.058.105h-.162c0-.047.017-.092.05-.136s.079-.079.136-.105a.456.456 0 01.189-.038c.109 0 .194.027.255.082s.094.129.096.224v.434c0 .087.011.155.033.207v.014h-.169zm-.268-.123c.051 0 .099-.013.144-.039s.078-.06.099-.102v-.194h-.126c-.197 0-.296.058-.296.173 0 .051.017.09.051.119s.077.043.13.043zm1.481.123h-.161v-.403h-.433v.403h-.162v-.943h.162v.409h.433v-.409h.161v.943zm.27-.48c0-.092.018-.175.054-.249a.402.402 0 01.374-.231c.128 0 .232.044.311.133s.119.207.119.355v.011c0 .092-.018.174-.053.247s-.085.129-.151.17a.412.412 0 01-.225.061c-.128 0-.232-.044-.311-.133s-.118-.207-.118-.353v-.011zm.162.019c0 .105.024.189.072.252s.114.095.195.095c.082 0 .147-.032.195-.096s.072-.155.072-.27c0-.103-.025-.187-.074-.251s-.114-.097-.195-.097c-.08 0-.144.032-.193.095s-.073.154-.073.272zm.967.461v-.943h.368c.125 0 .222.022.288.066s.101.108.101.193c0 .044-.013.083-.039.118s-.065.062-.116.08c.057.013.102.04.137.079s.052.085.052.139c0 .087-.032.153-.096.199s-.153.069-.269.069h-.426zm.161-.414v.284h.267c.067 0 .118-.012.151-.037s.051-.06.051-.106c0-.094-.069-.141-.207-.141h-.261zm0-.129h.208c.151 0 .227-.044.227-.132s-.072-.134-.214-.137h-.22v.269zm1.074-.075h.245c.107.001.191.029.254.084s.093.129.093.222c0 .094-.032.17-.096.227s-.15.085-.258.085h-.399v-.943h.161v.325zm.928.618h-.162v-.943h.162v.943zm-.928-.486v.355h.24c.06 0 .107-.015.14-.046s.05-.074.05-.128c0-.052-.016-.095-.049-.128s-.077-.051-.135-.052h-.246zm1.579-.112l.209-.344h.188l-.309.466.318.477h-.187l-.218-.353-.218.353h-.187l.318-.477-.309-.466h.187l.207.344zM.641 30.04c0-.044-.017-.079-.051-.105s-.08-.039-.139-.039c-.057 0-.105.015-.143.044s-.057.064-.057.105h-.16c0-.082.034-.149.103-.201s.154-.078.257-.078c.11 0 .196.024.258.071s.092.114.092.202c0 .042-.013.081-.038.117s-.062.064-.109.085c.11.037.165.11.165.22 0 .087-.033.155-.1.206s-.156.076-.268.076c-.109 0-.198-.026-.269-.079s-.105-.126-.105-.216h.16c0 .046.02.085.061.119s.092.049.153.049c.062 0 .111-.014.149-.043s.057-.065.057-.111c0-.053-.016-.091-.048-.113s-.08-.035-.147-.035H.301v-.136h.175c.11-.003.165-.048.165-.136zm1.023.685a.36.36 0 01-.023-.099.359.359 0 01-.268.117c-.093 0-.169-.026-.229-.079s-.089-.12-.089-.2c0-.098.037-.174.112-.228s.18-.082.316-.082h.157v-.074c0-.056-.017-.101-.051-.134s-.083-.051-.149-.051c-.058 0-.106.015-.145.044s-.058.064-.058.105h-.162c0-.047.017-.092.05-.136s.079-.079.136-.105a.456.456 0 01.189-.038c.109 0 .194.027.255.082s.094.129.096.224v.434c0 .087.011.155.033.207v.014h-.169zm-.267-.123c.051 0 .098-.013.144-.039s.078-.06.099-.102v-.194h-.126c-.198 0-.296.058-.296.173 0 .051.017.09.051.119s.077.043.13.043zm.702-.008l.056-.069c.063-.081.099-.203.107-.366l.015-.376h.607v.811h.121v.409h-.161v-.277h-.658v.277h-.161l.001-.409h.073zm.19 0h.433v-.662h-.29l-.01.225c-.01.188-.054.334-.133.438zm1.53.131a.36.36 0 01-.023-.099.359.359 0 01-.268.117c-.093 0-.169-.026-.229-.079s-.089-.12-.089-.2c0-.098.037-.174.112-.228s.18-.082.316-.082h.157v-.074c0-.056-.017-.101-.051-.134s-.083-.051-.149-.051c-.058 0-.106.015-.145.044s-.058.064-.058.105H3.23c0-.047.017-.092.05-.136s.079-.079.136-.105a.456.456 0 01.189-.038c.109 0 .194.027.255.082s.094.129.096.224v.434c0 .087.011.155.033.207v.014H3.82zm-.267-.123c.051 0 .099-.013.144-.039s.078-.06.098-.102v-.194h-.126c-.198 0-.296.058-.296.173 0 .051.017.09.051.119s.077.043.13.043zm1.48.123h-.161v-.403h-.433v.403h-.162v-.943h.162v.409h.433v-.409h.161v.943zm.923-.943h.161v.943h-.161v-.688l-.435.688h-.161v-.943h.161v.688l.435-.688zm1.084 0H7.2v.943h-.161v-.688l-.435.688h-.161v-.943h.161v.688l.435-.688zm.043-.343c0 .07-.024.127-.072.17s-.11.064-.188.064-.141-.021-.189-.064a.216.216 0 01-.072-.169h.132c0 .041.011.073.033.096s.054.034.097.034c.041 0 .072-.011.095-.034s.035-.055.035-.096h.131zm.434 1.202c0-.028.008-.051.024-.07s.042-.028.075-.028.058.009.075.028a.101.101 0 01.026.07c0 .027-.009.049-.026.067s-.042.027-.075.027-.058-.009-.075-.027a.097.097 0 01-.024-.067z"/><path fill="var(--color6, #f5f4fa)" d="M.51 0h33.402a.51.51 0 01.51.51v14.279a.51.51 0 01-.51.51H.51a.51.51 0 01-.51-.51V.51A.51.51 0 01.51 0z"/><path fill="var(--color2, #2196f3)" d="M21.666 4.449a.147.147 0 00-.12-.101l-.533-.077-.238-.483c-.05-.102-.217-.102-.267 0l-.238.483-.533.077a.149.149 0 00-.082.253l.386.376-.091.531a.148.148 0 00.216.156l.477-.251.477.251a.15.15 0 00.156-.011.147.147 0 00.059-.145l-.091-.531.386-.376a.15.15 0 00.038-.152zm-.687.37a.15.15 0 00-.043.132l.053.311-.279-.147c-.022-.011-.046-.017-.069-.017s-.047.006-.069.017l-.279.147.053-.311a.151.151 0 00-.043-.132l-.226-.22.312-.045a.15.15 0 00.112-.081l.139-.283.139.283a.15.15 0 00.112.081l.312.045-.226.22zM20.037 8.911h-.297v.297h.297v-.297zM20.037 9.506h-.297v.297h.297v-.297zM20.335 9.208h-.297v.297h.297v-.297zM19.74 9.208h-.298v.297h.298v-.297zM18.996 10.547h-.297v.297h.297v-.297zM18.996 11.142h-.297v.297h.297v-.297zM19.294 10.844h-.298v.297h.298v-.297z"/><path fill="var(--color2, #2196f3)" d="M18.699 10.844h-.298v.297h.298v-.297zM17.211 9.952h-.297v.297h.297v-.297zM17.211 10.547h-.297v.297h.297v-.297zM17.509 10.249h-.297v.297h.297v-.297zM16.914 10.249h-.298v.297h.298v-.297zM14.385 4.895h-.297v.298h.297v-.298zM14.385 5.49h-.297v.298h.297V5.49zM14.683 5.192h-.297v.298h.297v-.298zM14.088 5.192h-.298v.298h.298v-.298z"/><path fill="var(--color1, #212121)" d="M19.642 7.136a.497.497 0 00-.705-.099l-.349.268-.529.395-.379-.151a1.935 1.935 0 001.147-1.763c0-1.066-.871-1.934-1.941-1.934s-1.941.867-1.941 1.934c0 .386.116.746.312 1.048l-.771-.007h-.001l-.007.001a.157.157 0 00-.054.013l-.005.002-.902.445-.528.254-.018.01a.497.497 0 00.511.852l.387-.206.631-.326.378-.002-1.518 1.51-.373.372a.46.46 0 000 .657.466.466 0 00.658 0l.367-.365.485-.362.251.25-.491.489h-.001l-.373.372a.46.46 0 000 .657.466.466 0 00.658 0l.971-.967.281-.279-.001-.001.006-.004 1.441-1.578.968.138a.135.135 0 00.087-.016c.005-.003.011-.004.016-.008l.896-.595.008-.008.011-.007.355-.332a.497.497 0 00.059-.659zm-6.299 1.007c-.048.026-.103.031-.156.014s-.094-.052-.119-.1a.2.2 0 01.06-.252l.366-.176.088.258.037.108-.277.147zm.975-.51l-.432.223-.071-.208-.051-.15.565-.279-.011.414zm4.211-1.846c0 .256-.061.498-.167.714l-1.166-.53a.517.517 0 00-.22-.387l.408-1.355a1.64 1.64 0 011.145 1.558zm-3.287 0a1.642 1.642 0 011.852-1.621l-.399 1.326-.016-.002a.522.522 0 000 1.042.52.52 0 00.451-.263l1.077.489a1.645 1.645 0 01-2.965-.969zm1.661.223c0 .123-.101.223-.225.223s-.225-.1-.225-.223.101-.223.225-.223.225.1.225.223zm-3.467 4.19a.17.17 0 01-.238 0c-.032-.032-.049-.073-.049-.118s.017-.086.049-.117l.268-.267.237.236-.267.266zm.897 1.041a.17.17 0 01-.238 0c-.032-.032-.049-.073-.049-.118s.017-.086.049-.117l.268-.267.238.236-.268.266zm.971-.967l-.492.491-.238-.236.492-.489h.001c.011-.011.018-.025.025-.038.002-.004.006-.007.007-.011.005-.011.005-.024.007-.036.001-.007.004-.013.004-.02 0-.01-.004-.02-.006-.029s-.002-.018-.005-.027a.156.156 0 00-.025-.038l-.007-.011v-.001l-.448-.446c-.005-.005-.011-.007-.016-.011-.008-.006-.015-.012-.024-.016s-.017-.007-.026-.009c-.009-.003-.019-.005-.029-.005l-.027.001c-.01.001-.019.003-.029.006s-.018.008-.026.012c-.006.003-.012.004-.017.008l-.495.369-.251-.25.669-.665 1.216 1.196-.259.256zm1.901-1.957c-.004-.001-.008.001-.013.001a.115.115 0 00-.032.002l-.024.006c-.01.003-.018.008-.027.013s-.016.01-.023.017l-.011.008-1.31 1.435-1.207-1.187.79-.786a.148.148 0 00-.105-.254l-.619.004.008-.448.866.007a1.938 1.938 0 001.746.552.15.15 0 00.036.024l.672.268.042.212.05.247-.837-.119zm1.127.05l-.087-.434.403-.301.264.35-.58.385zm1.047-.79l-.234.219-.26-.345.232-.178a.204.204 0 01.285.039.2.2 0 01-.024.264z"/><path fill="var(--color1, #212121)" d="M16.542 8.359l-.598-.595a.148.148 0 00-.21 0l-.598.595a.148.148 0 000 .21l.598.595c.029.029.067.043.105.043s.076-.014.105-.043l.598-.595a.148.148 0 000-.21zm-.702.49l-.387-.385.387-.385.387.385-.387.385zM17.536 4.601l-.072.289c.02.005.485.126.485.599h.298c0-.563-.465-.827-.71-.888zM18.246 5.787h-.298v.298h.298v-.298z"/></symbol><symbol id="icon-foster" viewBox="0 0 57 32"><path fill="var(--color2, #2196f3)" d="M12.878 11.255h-.002c-1.279 0-2.316.921-2.316 2.058v.001c0 1.137 1.037 2.058 2.316 2.058h.002c1.279 0 2.316-.921 2.316-2.058v-.001c0-1.137-1.037-2.058-2.316-2.058zM29.971 10.597c-.004-1.579-.711-3.092-1.967-4.208s-2.958-1.745-4.735-1.749c-1.777.003-3.48.631-4.737 1.748s-1.964 2.63-1.968 4.209v8.706s13.405-1.327 13.406-8.704v-.001zM5.867 22.16c.003 1.098.496 2.151 1.369 2.928s2.058 1.215 3.294 1.218c1.236-.003 2.42-.441 3.294-1.218s1.366-1.829 1.37-2.927v-6.057s-9.327.924-9.327 6.056zm4.663 1.085c-.242 0-.478-.064-.678-.183s-.357-.289-.45-.487c-.092-.198-.117-.417-.069-.627s.163-.404.334-.556c.171-.152.388-.255.625-.297s.482-.02.706.062c.223.082.414.221.548.4s.206.388.206.603c.001.143-.031.284-.092.417s-.151.252-.264.353c-.114.101-.248.182-.397.236s-.308.083-.468.083v-.004zM19.956 22.647h-.9v.93h-.469v-2.275h1.481v.38h-1.012v.588h.9v.378zm2.253-.156c0 .224-.04.42-.119.589a.893.893 0 01-.847.528c-.189 0-.357-.045-.505-.136s-.262-.22-.344-.387a1.344 1.344 0 01-.123-.581v-.112c0-.224.04-.421.12-.591a.895.895 0 01.848-.529c.189 0 .358.046.505.137a.888.888 0 01.342.392c.081.17.122.366.122.589v.102zm-.475-.103c0-.238-.043-.42-.128-.544s-.207-.186-.366-.186a.416.416 0 00-.364.184c-.085.122-.129.301-.13.538v.111c0 .232.043.412.128.541s.208.192.369.192a.415.415 0 00.363-.184c.084-.124.127-.304.128-.541v-.111zm1.996.592a.237.237 0 00-.094-.203 1.203 1.203 0 00-.337-.15 2.418 2.418 0 01-.386-.156c-.258-.14-.387-.328-.387-.564 0-.123.034-.232.103-.328a.688.688 0 01.298-.227c.13-.054.276-.081.438-.081.163 0 .307.03.434.089a.662.662 0 01.401.614h-.469c0-.104-.033-.185-.098-.242s-.158-.087-.277-.087a.426.426 0 00-.267.073.225.225 0 00-.095.191c0 .074.037.136.111.186.075.05.185.097.33.141.267.08.461.18.583.298s.183.267.183.444a.55.55 0 01-.223.464c-.149.111-.349.167-.602.167-.175 0-.334-.032-.478-.095-.144-.065-.254-.153-.33-.264s-.113-.241-.113-.388h.47c0 .251.15.377.45.377a.442.442 0 00.261-.067.222.222 0 00.094-.191zm2.501-1.298h-.697v1.895h-.469v-1.895h-.687v-.38h1.853v.38zm1.638.909h-.9v.609h1.056v.377H26.5v-2.275h1.522v.38h-1.053v.542h.9v.367zm1.273.153h-.373v.833H28.3v-2.275h.845c.269 0 .476.06.622.18s.219.289.219.508a.697.697 0 01-.102.389.689.689 0 01-.305.247l.492.93v.022h-.503l-.427-.833zm-.373-.379h.378c.118 0 .209-.03.273-.089a.321.321 0 00.097-.248.343.343 0 00-.092-.253c-.06-.061-.154-.092-.28-.092h-.377v.683zm2.84.41v.802h-.469v-2.275h.887c.171 0 .321.031.45.094a.703.703 0 01.405.659.655.655 0 01-.23.528c-.152.128-.363.192-.633.192h-.411zm0-.379h.419c.124 0 .218-.029.283-.088.066-.058.098-.142.098-.25 0-.111-.033-.202-.098-.27s-.156-.104-.272-.106h-.43v.714zm2.966.195h-.9v.609h1.056v.377h-1.525v-2.275h1.522v.38h-1.053v.542h.9v.367zm2.175-.909h-.697v1.895h-.469v-1.895h-.688v-.38h1.853v.38zm1.637.909h-.9v.609h1.056v.377h-1.525v-2.275h1.522v.38h-1.053v.542h.9v.367zm1.274.153h-.373v.833h-.469v-2.275h.845c.269 0 .476.06.622.18s.219.289.219.508a.697.697 0 01-.102.389.689.689 0 01-.305.247l.492.93v.022h-.503l-.427-.833zm-.374-.379h.378c.118 0 .209-.03.273-.089a.321.321 0 00.097-.248.343.343 0 00-.092-.253c-.06-.061-.154-.092-.28-.092h-.377v.683zm2.755.615a.237.237 0 00-.094-.203 1.203 1.203 0 00-.337-.15 2.418 2.418 0 01-.386-.156c-.258-.14-.388-.328-.388-.564 0-.123.034-.232.103-.328a.688.688 0 01.298-.227c.13-.054.276-.081.438-.081.163 0 .307.03.434.089a.675.675 0 01.295.248.646.646 0 01.106.366h-.469c0-.104-.033-.185-.098-.242s-.158-.087-.277-.087a.426.426 0 00-.267.073.225.225 0 00-.095.191c0 .074.037.136.111.186.075.05.185.097.33.141.267.08.461.18.583.298s.183.267.183.444a.548.548 0 01-.223.464c-.149.111-.349.167-.602.167-.175 0-.334-.032-.478-.095a.773.773 0 01-.33-.264.678.678 0 01-.112-.388h.47c0 .251.15.377.45.377a.442.442 0 00.261-.067.222.222 0 00.094-.191z"/></symbol><symbol id="icon-linkedin" viewBox="0 0 32 32"><path fill="var(--color4, #fff)" d="M32 16c0 4.418-1.791 8.418-4.686 11.314S20.419 32 16 32s-8.418-1.791-11.314-4.686C1.791 24.419 0 20.419 0 16S1.791 7.582 4.686 4.686 11.581 0 16 0c4.418 0 8.418 1.791 11.314 4.686S32 11.581 32 16z"/><path fill="var(--color3, #afb1b8)" d="M23.269 23.273v-.001h.004v-5.335c0-2.61-.562-4.62-3.613-4.62-1.467 0-2.451.805-2.853 1.568h-.042v-1.324h-2.893v9.711h3.012v-4.809c0-1.266.24-2.49 1.808-2.49 1.545 0 1.568 1.445 1.568 2.572v4.728h3.009zM8.967 13.562h3.016v9.711H8.967v-9.711zM10.474 8.727c-.964 0-1.747.782-1.747 1.747s.782 1.763 1.747 1.763c.964 0 1.747-.799 1.747-1.763s-.783-1.747-1.747-1.747z"/></symbol><symbol id="icon-instagram" viewBox="0 0 32 32"><path fill="var(--color4, #fff)" d="M31.969 9.408c-.075-1.7-.35-2.869-.744-3.882a7.806 7.806 0 00-1.851-2.838A7.867 7.867 0 0026.542.844C25.523.45 24.36.175 22.66.1 20.947.019 20.403 0 16.059 0s-4.888.019-6.595.094c-1.7.075-2.869.35-3.882.744a7.803 7.803 0 00-2.838 1.85A7.867 7.867 0 00.9 5.52C.506 6.539.231 7.702.156 9.402c-.081 1.713-.1 2.257-.1 6.601s.019 4.888.094 6.595c.075 1.7.35 2.869.744 3.882a7.895 7.895 0 001.85 2.838 7.867 7.867 0 002.832 1.844c1.019.394 2.182.669 3.882.744 1.706.075 2.25.094 6.595.094s4.888-.019 6.595-.094c1.7-.075 2.869-.35 3.882-.744a8.184 8.184 0 004.682-4.682c.394-1.019.669-2.182.744-3.882.075-1.707.094-2.251.094-6.595s-.006-4.888-.081-6.595zm-2.882 13.065c-.069 1.563-.331 2.407-.55 2.969a5.31 5.31 0 01-3.038 3.038c-.563.219-1.413.481-2.969.55-1.688.075-2.194.094-6.464.094s-4.782-.019-6.464-.094c-1.563-.069-2.407-.331-2.969-.55a4.926 4.926 0 01-1.838-1.194 4.974 4.974 0 01-1.194-1.838c-.219-.563-.481-1.413-.55-2.969-.075-1.688-.094-2.194-.094-6.464s.019-4.782.094-6.464c.069-1.563.331-2.407.55-2.969a4.868 4.868 0 011.2-1.838A4.974 4.974 0 016.639 3.55c.563-.219 1.413-.481 2.969-.55 1.688-.075 2.194-.094 6.464-.094 4.276 0 4.782.019 6.464.094 1.563.069 2.407.331 2.969.55a4.914 4.914 0 011.838 1.194 4.974 4.974 0 011.194 1.838c.219.563.481 1.413.55 2.969.075 1.688.094 2.194.094 6.464s-.019 4.77-.094 6.458z"/><path fill="var(--color4, #fff)" d="M16.059 7.783c-4.538 0-8.22 3.682-8.22 8.22s3.682 8.22 8.22 8.22c4.539 0 8.22-3.682 8.22-8.22s-3.682-8.22-8.22-8.22zm0 13.552a5.333 5.333 0 010-10.664 5.333 5.333 0 010 10.664zM26.524 7.458a1.919 1.919 0 11-3.838 0 1.919 1.919 0 013.838 0z"/></symbol><symbol id="icon-smartphone" viewBox="0 0 20 32"><path fill="var(--color5, #757575)" d="M17 0H3C1.346 0 0 1.346 0 3v26c0 1.654 1.346 3 3 3h14c1.654 0 3-1.346 3-3V3c0-1.654-1.346-3-3-3zM3 2h14a1 1 0 011 1v21H2V3a1 1 0 011-1zm14 28H3a1 1 0 01-1-1v-3h16v3a1 1 0 01-1 1z"/><path fill="var(--color5, #757575)" d="M4.707 27.478c.391.365.391.956 0 1.321s-1.024.365-1.414 0c-.391-.365-.391-.956 0-1.321s1.024-.365 1.414 0z"/></symbol><symbol id="icon-yaco" viewBox="0 0 57 32"><path fill="var(--color3, #afb1b8)" d="M20.267 3.733l3.738 3.538-6.938-.004v17.166H35.2v-6.564l3.733 3.534V3.732H20.266zm14.769 13.722L24.439 7.423h10.597v10.032zm-3.29 4.468h-11.81V10.378h.835v10.764h10.975v.782zm-9.021 4.797l-.436.898-.436-.898h-.366l.637 1.198v.698h.331v-.698l.635-1.198h-.365zm.548 1.895l.154-.441h.734l.155.441h.344l-.717-1.896h-.296l-.716 1.896h.342zm.521-1.493l.275.786h-.549l.275-.786zm1.737.741a.429.429 0 00-.072.241c0 .16.056.29.168.389s.263.148.451.148.349-.051.484-.152l.107.126h.367l-.279-.329a.95.95 0 00.164-.574h-.275a.758.758 0 01-.079.348l-.366-.432.129-.094c.091-.066.157-.132.197-.198s.06-.14.06-.219c0-.12-.044-.22-.133-.301s-.201-.122-.339-.122c-.153 0-.274.043-.365.13s-.135.203-.135.352c0 .061.014.124.043.189s.081.144.155.237a1.12 1.12 0 00-.283.262zm.855.419a.485.485 0 01-.299.107c-.095 0-.17-.027-.227-.082s-.085-.126-.085-.214c0-.102.052-.192.156-.271l.04-.029.414.488zm-.34-.84c-.089-.11-.134-.202-.134-.275 0-.063.018-.116.055-.158s.085-.063.147-.063c.057 0 .105.018.142.053s.056.077.056.126a.235.235 0 01-.081.184l-.04.033-.145.099zm3.086 1.03a.689.689 0 00.224-.474h-.328c-.017.135-.059.232-.124.29s-.162.087-.292.087c-.142 0-.249-.054-.323-.161s-.109-.264-.109-.469v-.168c.002-.202.041-.355.117-.46s.188-.158.331-.158c.123 0 .217.03.28.091s.104.158.12.294h.328c-.021-.207-.095-.368-.223-.482s-.296-.171-.505-.171a.718.718 0 00-.683.426 1.116 1.116 0 00-.095.473v.177c.003.174.035.328.098.46s.151.234.266.306a.748.748 0 00.4.107c.216 0 .389-.056.52-.169zm1.936-.266c.064-.141.096-.304.096-.49v-.105c-.001-.185-.034-.347-.099-.486a.726.726 0 00-.687-.432.757.757 0 00-.411.113c-.119.075-.211.183-.277.324s-.098.305-.098.49v.107c.001.181.034.342.099.48s.159.246.279.322a.764.764 0 00.411.112c.155 0 .293-.037.411-.112s.212-.183.276-.323zm-.352-1.071c.08.112.12.273.12.483v.099c0 .214-.04.376-.119.487s-.19.167-.336.167c-.144 0-.257-.057-.339-.171s-.121-.275-.121-.483v-.109c.002-.204.043-.362.122-.473s.192-.168.335-.168c.146 0 .258.056.337.168z"/></symbol></defs></svg>